<svg version="1.2" xmlns="http://www.w3.org/2000/svg" viewBox="0 0 720 720" width="720" height="720">
	<title>video-editing-svg</title>
	<style>
		.s0 { fill: #325e64 } 
		.s1 { fill: none;stroke: #325e64;stroke-width: 8.8 } 
	</style>
	<g id="Папка 1">
		<path id="Layer" fill-rule="evenodd" class="s0" d="m134.3 296.4h451.4v208.3h-451.4zm16.5 191.8h418.4v-175.3h-418.4z"/>
		<path id="Layer" fill-rule="evenodd" class="s0" d="m92 258.7h536v283.3h-536zm16.5 266.8h503v-249.9h-503z"/>
		<path id="Layer" class="s0" d="m321.6 450.6v-103.6l76.8 51.8z"/>
		<path id="Layer" class="s0" d="m220.1 580.3q0 1.1 0 2.1 0.1 1.1 0.3 2.1 0.1 1 0.4 2.1 0.2 1 0.5 2h-25.1v-16.5h25.1q-0.3 1-0.5 2-0.3 1-0.4 2.1-0.2 1-0.3 2 0 1.1 0 2.1z"/>
		<path id="Layer" class="s0" d="m588.9 572.1v16.5h-316.5q0.7-2 1-4.1 0.3-2.1 0.3-4.2 0-2.1-0.3-4.1-0.3-2.1-1-4.1z"/>
		<path id="Layer" class="s0" d="m272.4 588.6c-1.7 5.4-5.1 10.1-9.7 13.5-4.6 3.3-10.1 5.1-15.8 5.1-5.7 0-11.2-1.8-15.8-5.1-4.6-3.4-8-8.1-9.8-13.5h19.3q1.4 1 3 1.5 1.6 0.6 3.3 0.6 1.7 0 3.3-0.6 1.6-0.5 2.9-1.5z"/>
		<path id="Layer" class="s0" d="m273.7 580.3q0 1.1 0 2.1-0.1 1.1-0.3 2.1-0.1 1-0.4 2.1-0.2 1-0.6 2h-19.2c1.2-1 2.3-2.2 3-3.7 0.7-1.4 1.1-3 1.1-4.6 0-1.6-0.4-3.1-1.1-4.6-0.7-1.4-1.8-2.7-3-3.6h19.3q0.3 1 0.5 2 0.3 1 0.4 2.1 0.2 1 0.3 2 0 1.1 0 2.1z"/>
		<path id="Layer" class="s0" d="m240.6 588.6h-19.3q-0.6-2-0.9-4.1-0.3-2.1-0.3-4.2 0-2.1 0.3-4.1 0.3-2.1 0.9-4.1h19.4c-1.3 0.9-2.4 2.2-3.1 3.6-0.7 1.5-1 3-1 4.6 0 1.6 0.3 3.2 1 4.6 0.7 1.5 1.8 2.7 3.1 3.7z"/>
		<path id="Layer" class="s0" d="m272.4 572.1h-19.3q-1.3-1-2.9-1.6-1.6-0.5-3.3-0.5-1.7 0-3.3 0.5-1.6 0.6-2.9 1.6h-19.4c1.8-5.4 5.2-10.2 9.8-13.5 4.6-3.4 10.1-5.2 15.8-5.2 5.7 0 11.2 1.8 15.8 5.2 4.6 3.3 8 8.1 9.8 13.5z"/>
		<path id="Layer" class="s0" d="m131.6 566.2h16.5v29.2h-16.5z"/>
		<path id="Layer" class="s0" d="m158.7 566.2h16.5v29.2h-16.5z"/>
		<path id="Layer" class="s0" d="m628 163.2v112.4l-536-0.3v-112.5l189.5 0.4q-0.1 0.5-0.3 1.1-0.1 0.5-0.2 1.1-0.1 0.5-0.1 1.1 0 0.6 0 1.2v7.4q0 0.6 0 1.2 0 0.5 0.1 1.1 0.1 0.6 0.2 1.1 0.2 0.6 0.3 1.1h-173v79.5h503v-79.5h-173q0.1-0.5 0.3-1.1 0.1-0.5 0.2-1.1 0.1-0.6 0.1-1.1 0.1-0.6 0.1-1.2v-7.4q0-0.6-0.1-1.2 0-0.6-0.1-1.1-0.1-0.6-0.2-1.1-0.2-0.6-0.3-1.1z"/>
		<path id="Layer" fill-rule="evenodd" class="s0" d="m628 637.6l-536 0.4v-112.5h536zm-519.5-16.1h503v-79.5h-503z"/>
		<circle id="Layer" class="s1" cx="152.7" cy="219.4" r="17.7"/>
		<circle id="Layer" class="s1" cx="567" cy="219.4" r="17.7"/>
		<circle id="Layer" class="s1" cx="507.1" cy="219.4" r="17.7"/>
		<path id="Layer" fill-rule="evenodd" class="s0" d="m363.8 250.6h-7.5q-2.7 0-5.1-0.9c-1.7-0.6-3.2-1.5-4.5-2.6-1.4-1.1-2.5-2.4-3.4-3.9-0.9-1.5-1.5-3.1-1.9-4.8l-3-15-12.6 8.5q-2.3 1.5-4.8 2.1c-1.7 0.4-3.4 0.5-5.1 0.4-1.8-0.2-3.4-0.7-5-1.4q-2.4-1.1-4.2-3l-5.3-5.3q-1.8-1.8-3-4.2c-0.7-1.6-1.2-3.2-1.4-5-0.1-1.7 0-3.4 0.4-5.1 0.4-1.7 1.1-3.3 2.1-4.7l8.5-12.8-15-2.9c-1.7-0.4-3.3-1-4.8-1.9-1.5-0.9-2.8-2-3.9-3.4-1.1-1.3-2-2.9-2.6-4.5q-0.9-2.4-0.9-5.1v-7.5q0-2.6 0.9-5.1c0.6-1.6 1.5-3.1 2.6-4.5q1.6-2 3.9-3.3c1.5-0.9 3.1-1.6 4.8-1.9l15-3-8.5-12.7c-0.9-1.4-1.6-3-2.1-4.7q-0.6-2.6-0.3-5.1c0.1-1.7 0.6-3.4 1.3-5 0.8-1.5 1.8-3 3-4.2l5.3-5.3c1.2-1.2 2.6-2.2 4.2-2.9 1.6-0.8 3.2-1.3 5-1.4 1.7-0.2 3.4-0.1 5.1 0.4 1.7 0.4 3.3 1.1 4.8 2l12.7 8.6 3-15.1q0.4-2.6 1.8-4.8c0.9-1.5 2.1-2.8 3.4-3.9 1.3-1.1 2.9-2 4.5-2.5 1.6-0.6 3.4-0.9 5.1-0.9h7.5q2.5 0 5.1 0.9c1.6 0.5 3.1 1.4 4.5 2.5q2 1.6 3.3 3.9c0.9 1.5 1.6 3.1 1.9 4.8l3 15.1 12.7-8.6c1.4-1 3-1.7 4.7-2.1 1.7-0.4 3.4-0.5 5.1-0.4 1.8 0.2 3.5 0.7 5 1.4 1.6 0.7 3 1.8 4.3 3l5.2 5.3q2 1.8 3 4.2c0.7 1.6 1.2 3.2 1.4 5 0.2 1.7 0 3.4-0.4 5.1-0.4 1.7-1.1 3.3-2.1 4.7l-8.5 12.8 15 2.9c1.7 0.4 3.4 1 4.8 1.9 1.5 0.9 2.9 2 4 3.4 1.1 1.3 1.9 2.9 2.5 4.5 0.6 1.6 0.9 3.4 0.9 5.1v7.5q0 2.6-0.9 5.1c-0.6 1.6-1.4 3.1-2.5 4.5-1.1 1.3-2.5 2.4-4 3.3-1.4 0.9-3.1 1.6-4.8 1.9l-15 3 8.5 12.7c1 1.5 1.7 3.1 2.1 4.7 0.4 1.7 0.6 3.5 0.4 5.2-0.2 1.7-0.7 3.4-1.4 5-0.7 1.5-1.7 3-3 4.2l-5.2 5.3c-1.3 1.2-2.7 2.2-4.3 2.9-1.5 0.8-3.2 1.2-5 1.4-1.7 0.2-3.4 0-5.1-0.4-1.7-0.4-3.3-1.1-4.7-2.1l-12.7-8.5-3 15c-0.4 1.7-1 3.3-1.9 4.8-0.9 1.5-2 2.8-3.4 3.9-1.3 1.1-2.8 2-4.5 2.6-1.6 0.5-3.3 0.8-5 0.9zm-6.4-16.5h5.2l3.2-15.9q0.3-1.9 1.1-3.5 0.8-1.7 2-3.2 1.2-1.4 2.7-2.5 1.5-1.1 3.2-1.8h0.1q1.7-0.8 3.6-1 1.8-0.3 3.7-0.1 1.8 0.2 3.6 0.8 1.7 0.6 3.3 1.7l13.4 8.9 3.7-3.6-9-13.5q-1.1-1.5-1.7-3.3-0.6-1.7-0.8-3.6-0.2-1.9 0.1-3.7 0.3-1.8 1-3.6v-0.1q0.8-1.7 1.9-3.2 1.1-1.5 2.5-2.7 1.4-1.1 3.1-1.9 1.7-0.8 3.5-1.2l15.9-3.1v-5.2l-15.9-3.1q-1.8-0.4-3.5-1.2-1.6-0.8-3.1-2-1.4-1.1-2.5-2.6-1.1-1.5-1.9-3.2v-0.1q-0.7-1.7-1-3.6-0.3-1.8-0.1-3.7 0.2-1.9 0.8-3.6 0.6-1.8 1.7-3.3l9-13.5-3.7-3.7-13.4 9.1c-2.1 1.3-4.5 2.2-7 2.4-2.4 0.3-4.9-0.1-7.2-1.1-2.3-0.9-4.4-2.4-6-4.3-1.5-2-2.6-4.2-3.1-6.7l-3.2-15.9h-5.2l-3.1 15.9q-0.4 1.8-1.2 3.5-0.8 1.7-1.9 3.2-1.2 1.4-2.7 2.5-1.5 1.1-3.3 1.8l-0.1 0.1q-1.7 0.7-3.5 0.9-1.9 0.3-3.7 0.1-1.9-0.2-3.6-0.8-1.8-0.6-3.3-1.6l-13.5-9.1-3.6 3.7 9 13.5q1 1.5 1.6 3.3 0.7 1.7 0.8 3.6 0.2 1.8 0 3.7-0.3 1.8-1 3.6v0.1q-0.8 1.7-1.9 3.2-1.1 1.5-2.5 2.6-1.4 1.2-3.1 2-1.7 0.8-3.5 1.1l-15.9 3.2v5.2l15.9 3.1q1.8 0.4 3.5 1.2 1.6 0.8 3.1 2 1.4 1.1 2.5 2.6 1.1 1.5 1.8 3.2v0.1q0.7 1.8 1 3.6 0.3 1.8 0.1 3.7-0.2 1.9-0.8 3.6-0.6 1.8-1.7 3.3l-9 13.5 3.7 3.6 13.5-9c2-1.3 4.4-2.2 6.9-2.4 2.5-0.3 5 0.1 7.3 1 2.3 1 4.3 2.5 5.9 4.4 1.6 2 2.6 4.2 3.1 6.7zm-23.8-51.7c-4.4-10.7-2-23 6.2-31.2 8.2-8.2 20.5-10.6 31.1-6.2 10.7 4.4 17.7 14.8 17.7 26.4 0 3.8-0.8 7.5-2.2 10.9-1.4 3.5-3.5 6.7-6.2 9.3-2.7 2.7-5.8 4.8-9.3 6.2-3.4 1.5-7.2 2.2-10.9 2.2-11.6 0-22-7-26.4-17.6zm26.4-23.1c-4.9 0-9.3 3-11.2 7.5-1.8 4.5-0.8 9.7 2.7 13.2 3.4 3.4 8.6 4.5 13.1 2.6 4.6-1.9 7.5-6.3 7.5-11.2 0-1.6-0.3-3.1-0.9-4.6q-0.9-2.2-2.7-3.9c-1.1-1.1-2.4-2-3.9-2.6-1.5-0.6-3-0.9-4.6-0.9zm0 40.7z"/>
		<path id="Layer" class="s0" d="m319 179.6h-37.5q-0.1-0.5-0.3-1.1-0.1-0.5-0.2-1.1-0.1-0.6-0.1-1.1-0.1-0.6-0.1-1.2v-7.4q0-0.6 0.1-1.2 0-0.6 0.1-1.1 0.1-0.6 0.2-1.1 0.2-0.6 0.3-1.1h37.5q-0.6 0.4-1.3 0.8-0.7 0.4-1.4 0.7-0.8 0.3-1.5 0.5-0.8 0.3-1.6 0.4l-15.8 3.2v5.2l15.8 3.1q0.8 0.2 1.6 0.4 0.7 0.3 1.5 0.6 0.7 0.3 1.4 0.7 0.7 0.4 1.3 0.8z"/>
		<path id="Layer" class="s0" d="m438.5 163.2h-37.5q-0.9-0.7-1.7-1.4-0.7-0.7-1.4-1.5-0.6-0.9-1.2-1.8-0.5-0.9-0.9-1.8v-0.1q-0.7-1.7-1-3.6-0.3-1.8-0.1-3.7 0.2-1.8 0.8-3.6 0.6-1.8 1.7-3.3l9-13.5-3.7-3.7-13.5 9.1c-2 1.3-4.4 2.2-6.9 2.4-2.5 0.3-5-0.1-7.3-1.1-2.3-0.9-4.3-2.4-5.9-4.3-1.6-2-2.6-4.2-3.1-6.7l-3.2-15.9h-5.2l-3.1 15.9q-0.4 1.8-1.2 3.5-0.8 1.7-2 3.2-1.2 1.4-2.7 2.5-1.5 1.1-3.2 1.8h-0.1q-1.7 0.7-3.5 1-1.9 0.3-3.7 0.1-1.9-0.2-3.6-0.8-1.8-0.6-3.3-1.7l-13.5-9-3.6 3.7 9 13.4q1 1.6 1.6 3.3 0.7 1.8 0.8 3.7 0.2 1.8-0.1 3.7-0.2 1.8-1 3.5 0.1 0 0.1 0 0 0.1 0 0.1 0 0-0.1 0-0.4 1-0.9 1.9-0.5 0.9-1.2 1.7-0.6 0.9-1.4 1.6-0.8 0.7-1.6 1.3h-37.6q0.6-1.9 1.7-3.6 1.1-1.7 2.7-3.1 1.5-1.4 3.3-2.3 1.8-0.9 3.8-1.3l15-3-8.5-12.7c-0.9-1.4-1.6-3-2.1-4.7q-0.6-2.6-0.3-5.1c0.1-1.7 0.6-3.4 1.3-5 0.8-1.5 1.8-3 3-4.2l5.3-5.3c1.2-1.2 2.6-2.2 4.2-2.9 1.6-0.8 3.2-1.3 5-1.4 1.7-0.2 3.4-0.1 5.1 0.4 1.7 0.4 3.3 1.1 4.8 2l12.7 8.6 2.9-15.1c0.4-1.7 1-3.3 1.9-4.8 0.9-1.5 2-2.8 3.4-3.9 1.3-1.1 2.9-1.9 4.5-2.5q2.4-0.9 5.1-0.9h7.5q2.5 0 5.1 0.9c1.6 0.5 3.1 1.4 4.5 2.5q2 1.6 3.3 3.9c0.9 1.5 1.6 3.1 1.9 4.8l3 15.1 12.7-8.6c1.4-1 3-1.7 4.7-2.1 1.7-0.4 3.4-0.5 5.1-0.4 1.8 0.2 3.5 0.7 5 1.4q2.4 1.2 4.2 3l5.3 5.3q2 1.8 3 4.2c0.7 1.6 1.2 3.2 1.4 5 0.2 1.7 0 3.4-0.4 5.1-0.4 1.7-1.1 3.3-2.1 4.7l-8.5 12.8 15 2.9q2 0.4 3.8 1.4 1.8 0.9 3.3 2.2 1.6 1.4 2.7 3.1 1.1 1.7 1.7 3.7z"/>
		<path id="Layer" class="s0" d="m439.2 167.7v7.4q0 0.6-0.1 1.2 0 0.5-0.1 1.1-0.1 0.6-0.2 1.1-0.2 0.6-0.3 1.1h-37.5q0.6-0.4 1.3-0.8 0.7-0.4 1.4-0.7 0.8-0.3 1.5-0.5 0.8-0.3 1.6-0.4l15.9-3.2v-5.2l-15.9-3.1q-0.8-0.2-1.5-0.4-0.8-0.2-1.5-0.5-0.8-0.4-1.5-0.7-0.6-0.4-1.3-0.9h37.5q0.2 0.5 0.3 1.1 0.1 0.5 0.2 1.1 0.1 0.6 0.1 1.1 0.1 0.6 0.1 1.2z"/>
		<path id="Layer" class="s0" d="m438.5 179.6q-0.6 2-1.7 3.7-1.2 1.7-2.7 3.1-1.5 1.3-3.3 2.2-1.8 0.9-3.8 1.3l-15 3 8.5 12.7q1.5 2.2 2.1 4.8c0.4 1.7 0.5 3.4 0.4 5.1-0.2 1.7-0.7 3.4-1.4 5q-1.2 2.4-3 4.2l-5.3 5.3q-1.8 1.8-4.2 3c-1.6 0.7-3.2 1.2-5 1.4-1.7 0.1-3.4 0-5.1-0.4-1.7-0.4-3.3-1.1-4.7-2.1l-12.7-8.5-3 15c-0.4 1.7-1 3.3-1.9 4.8-0.9 1.5-2 2.8-3.4 3.9-1.3 1.1-2.8 2-4.5 2.6q-2.4 0.9-5.1 0.9h-7.4q-2.7 0-5.1-0.9c-1.7-0.6-3.2-1.5-4.5-2.6-1.4-1.1-2.5-2.4-3.4-3.9-0.9-1.5-1.5-3.1-1.9-4.8l-3-15-12.7 8.5c-1.4 1-3 1.7-4.7 2.1-1.7 0.4-3.4 0.5-5.1 0.4-1.8-0.2-3.4-0.7-5-1.4q-2.4-1.1-4.2-3l-5.3-5.3q-1.8-1.8-3-4.2c-0.7-1.6-1.2-3.2-1.4-5-0.1-1.7 0-3.4 0.4-5.1 0.4-1.7 1.1-3.3 2.1-4.7l8.5-12.8-15-2.9q-2-0.4-3.8-1.3-1.8-1-3.3-2.3-1.6-1.4-2.7-3.1-1.1-1.7-1.7-3.6h37.5q0.9 0.6 1.6 1.3 0.8 0.7 1.5 1.5 0.6 0.9 1.1 1.8 0.6 0.9 1 1.8v0.1q0.7 1.7 1 3.6 0.2 1.8 0.1 3.7-0.2 1.8-0.8 3.6-0.7 1.7-1.7 3.3l-9 13.4 3.7 3.7 13.4-9c2.1-1.4 4.5-2.2 6.9-2.5 2.5-0.2 5 0.2 7.3 1.1 2.3 1 4.4 2.5 5.9 4.4 1.6 1.9 2.7 4.2 3.2 6.7l3.1 15.8h5.2l3.2-15.8q0.3-1.9 1.1-3.6 0.8-1.6 2-3.1 1.2-1.4 2.7-2.5 1.5-1.1 3.2-1.9h0.1q1.8-0.7 3.6-1 1.8-0.3 3.7-0.1 1.8 0.2 3.6 0.8 1.7 0.7 3.3 1.7l13.4 9 3.7-3.7-9-13.4q-1-1.6-1.7-3.3-0.6-1.8-0.8-3.6-0.2-1.9 0.1-3.7 0.3-1.9 1-3.6 0-0.1 0-0.1 0.4-0.9 0.9-1.8 0.6-1 1.2-1.8 0.7-0.8 1.5-1.5 0.7-0.8 1.6-1.4z"/>
		<path id="Layer" class="s0" d="m223.1 586.4c0.2 1.2-1 2.1-2 2.1q-0.4 0-0.8-0.2-0.4-0.1-0.7-0.4-0.2-0.3-0.4-0.7-0.2-0.4-0.2-0.8c-0.3-2.4-0.8-4.9-0.9-7.2-0.1-2.4 0.5-4.9 2.3-6.5q0.3-0.3 0.7-0.5 0.3-0.1 0.7-0.1 0.4 0 0.8 0.1 0.4 0.2 0.7 0.5 0.3 0.3 0.4 0.6 0.2 0.4 0.2 0.8 0 0.4-0.2 0.8-0.1 0.4-0.4 0.7c-0.1 0-0.6 0.6-0.3 0.3q-0.1 0-0.1 0.1 0 0-0.1 0.1 0 0.1-0.1 0.1 0 0.1 0 0.1 0 0.1-0.1 0.1 0 0.1 0 0.1 0 0.1-0.1 0.1 0 0 0 0.1 0.1-0.3 0-0.1 0 0.1-0.1 0.2 0 0.1 0 0.2 0 0 0 0.1-0.1 0.1-0.1 0.2c0 0-0.1 0.7 0 0.2q-0.1 0.1-0.1 0.2 0 0.1 0 0.2 0 0.1 0 0.2 0 0.1 0 0.2 0 0.2 0 0.4 0 0.2 0 0.4 0 0.2 0 0.4 0.1 0.2 0.1 0.4c0.2 2.2 0.5 4.3 0.8 6.5z"/>
		<path id="Layer" class="s0" d="m274.7 587.3q-0.1 0.3-0.4 0.6-0.3 0.3-0.7 0.5-0.3 0.1-0.7 0.1-0.5 0-0.8-0.1-0.4-0.2-0.7-0.5-0.3-0.3-0.5-0.6-0.1-0.4-0.1-0.8l0.7-6.1q0-0.4 0.1-0.7 0-0.3-0.1-0.6 0-0.4-0.1-0.7-0.1-0.3-0.2-0.6l-1.1-3q-0.1-0.4 0-0.8 0-0.4 0.2-0.7 0.2-0.4 0.5-0.6 0.3-0.3 0.7-0.4 0.4-0.1 0.8-0.1 0.4 0.1 0.8 0.3 0.4 0.2 0.6 0.5 0.3 0.3 0.4 0.7c0.7 2.1 1.8 4.3 1.5 6.4q-0.3 3.2-0.7 6.4 0 0.4-0.2 0.8z"/>
		<path id="Layer" class="s0" d="m272.1 576.2c2.7 0 2.7-4.2 0-4.2-2.6 0-2.6 4.2 0 4.2z"/>
		<path id="Layer" class="s0" d="m223.3 574.9c2.7 0 2.7-4.1 0-4.1-2.6 0-2.6 4.1 0 4.1z"/>
		<path id="Layer" class="s0" d="m221.9 574.3c-0.4-0.4-0.6-0.9-0.6-1.4q0-0.9 0.6-1.5c0.4-0.4 0.9-0.6 1.4-0.6l13.4 0.2c0.5 0 1.1 0.2 1.5 0.6 0.3 0.3 0.6 0.9 0.6 1.4 0 0.6-0.3 1.1-0.6 1.5-0.4 0.4-1 0.6-1.5 0.6l-13.4-0.2c-0.5 0-1-0.2-1.4-0.6z"/>
		<path id="Layer" class="s0" d="m237.4 574.3c2.6 0 2.6-4.1 0-4.1-2.7 0-2.7 4.1 0 4.1z"/>
		<path id="Layer" class="s0" d="m238.2 570.4q0.4 0.2 0.7 0.5 0.3 0.3 0.4 0.7 0.2 0.3 0.2 0.7 0 0.4-0.2 0.8-0.2 0.4-0.4 0.7-0.3 0.3-0.7 0.4-0.4 0.2-0.8 0.2-1.2 0.1-2.3 0.2-1.2 0.1-2.4 0.1-1.1 0-2.3 0.1-1.2 0-2.4 0c-0.5 0-1-0.3-1.4-0.7-0.4-0.3-0.6-0.9-0.6-1.4q0-0.9 0.6-1.5c0.4-0.4 0.9-0.6 1.4-0.6q1.2 0 2.4 0 1.2 0 2.3 0 1.2-0.1 2.4-0.1 1.1-0.1 2.3-0.2 0.4 0 0.8 0.1z"/>
		<path id="Layer" class="s0" d="m253.5 572.1q-0.4-0.2-0.6-0.6-0.2-0.3-0.2-0.7-0.1-0.4 0-0.8 0.2-0.4 0.4-0.7 0.3-0.4 0.6-0.6 0.4-0.2 0.8-0.2 0.4-0.1 0.8 0 3.9 0.7 7.8 1.2 1 0.1 2 0.2 1.1 0.2 2.1 0.3 1 0.2 2 0.4 1 0.2 2 0.4c2.6 0.7 1.5 4.7-1.1 4q-0.9-0.2-1.9-0.4-0.9-0.2-1.9-0.3-0.9-0.2-1.9-0.3-0.9-0.2-1.9-0.3-4.2-0.5-8.3-1.2-0.4-0.1-0.7-0.4z"/>
		<path id="Layer" class="s0" d="m222.7 590.1q-0.4-0.2-0.7-0.4-0.3-0.3-0.5-0.7-0.1-0.4-0.1-0.8 0-0.4 0.2-0.8 0.1-0.4 0.4-0.6 0.3-0.3 0.7-0.5 0.3-0.2 0.7-0.2 1.5-0.1 3-0.2 1.6 0 3.1-0.1 1.5 0 3 0.1 1.5 0.1 3 0.2 0.4 0 0.7 0.2 0.4 0.1 0.7 0.4 0.3 0.3 0.5 0.7 0.1 0.3 0.1 0.8 0 0.4-0.1 0.7-0.2 0.4-0.5 0.7-0.3 0.3-0.6 0.5-0.4 0.1-0.8 0.1-1.5-0.1-3-0.2-1.5 0-3 0-1.5 0-3.1 0-1.5 0.1-3 0.3-0.4 0-0.7-0.2z"/>
		<path id="Layer" class="s0" d="m235.5 590.3q-0.1 0-0.3 0-0.1 0-0.2-0.1-0.2 0-0.3-0.1-0.1 0-0.2-0.1l-0.4-0.3q-0.1-0.1-0.2-0.2-0.1-0.1-0.2-0.2 0-0.1-0.1-0.3 0-0.1-0.1-0.2v-0.6q-0.1-0.1 0-0.2 0-0.1 0-0.2 0-0.1 0-0.2 0.1-0.1 0.1-0.2 0.1-0.1 0.1-0.2 0-0.1 0.1-0.1 0.1-0.1 0.1-0.2 0.1-0.1 0.2-0.1 0-0.1 0.1-0.2 0.1-0.1 0.2-0.1 0-0.1 0.1-0.1 0.1 0 0.2-0.1 0.1 0 0.2-0.1 0.1 0 0.2 0 0.1 0 0.2-0.1 0.1 0 0.2 0 0.1 0 0.2 0.1 0.1 0 0.2 0 0.1 0 0.2 0 0 0 0.1 0 0.6 0.1 1.2 0.2 0.2 0 0.3 0.1 0.1 0 0.2 0.1 0.1 0 0.2 0.1 0.1 0.1 0.2 0.2l0.4 0.4q0 0.1 0.1 0.3 0 0.1 0.1 0.2 0 0.1 0 0.3 0 0.1 0 0.3v0.5q-0.1 0.2-0.2 0.4-0.1 0.1-0.2 0.3-0.1 0.2-0.3 0.3-0.1 0.1-0.3 0.2-0.1 0.1-0.2 0.1 0 0.1-0.1 0.1-0.1 0-0.2 0.1-0.1 0-0.2 0-0.1 0-0.2 0-0.2 0-0.3 0-0.1 0-0.2 0-0.1 0-0.2 0l-0.5-0.1 0.6 0.1q-0.1 0-0.2-0.1-0.1 0-0.2 0-0.1 0-0.2 0-0.1 0-0.2 0z"/>
		<path id="Layer" class="s0" d="m237.5 590.6c2.6 0 2.6-4.1 0-4.1-2.7 0-2.7 4.1 0 4.1z"/>
		<path id="Layer" class="s0" d="m237.6 590.7c2.7 0 2.7-4.2 0-4.2-2.7 0-2.7 4.2 0 4.2z"/>
		<path id="Layer" class="s0" d="m238.5 591.5c2.6 0 2.6-4.1 0-4.1-2.7 0-2.7 4.1 0 4.1z"/>
		<path id="Layer" class="s0" d="m254.7 592.1c-0.5 0-1-0.2-1.4-0.6-0.4-0.4-0.6-0.9-0.6-1.4q0-0.9 0.6-1.5c0.4-0.4 0.9-0.6 1.4-0.6q1 0 1.9 0 0.9 0 1.9-0.1 0.9-0.1 1.8-0.2 0.9-0.1 1.9-0.3 3.8-0.5 7.7-1.1 0.4-0.1 0.8 0 0.4 0 0.7 0.2 0.4 0.2 0.6 0.5 0.3 0.4 0.4 0.7 0.1 0.4 0.1 0.9-0.1 0.4-0.3 0.7-0.2 0.4-0.5 0.6-0.4 0.3-0.7 0.4-4 0.6-8 1.2-1.1 0.1-2.1 0.3-1 0.1-2.1 0.2-1 0.1-2 0.1-1.1 0-2.1 0z"/>
	</g>
</svg>