<svg version="1.2" xmlns="http://www.w3.org/2000/svg" viewBox="0 0 48 48" width="48" height="48">
	<title>Asset 311-svg</title>
	<style>
		.s0 { fill: #51777c } 
	</style>
	<g id="Layer_2">
		<g id="_1">
			<path id="Layer" fill-rule="evenodd" class="s0" d="m38 12c-2.8 0-5-2.7-5-6 0-3.3 2.2-6 5-6 2.8 0 5 2.7 5 6 0 3.3-2.2 6-5 6zm0-10c-1.6 0-3 1.8-3 4 0 2.2 1.4 4 3 4 1.6 0 3-1.8 3-4 0-2.2-1.4-4-3-4z"/>
			<path id="Layer" class="s0" d="m42 27h2v18h-2z"/>
			<path id="Layer" class="s0" d="m37 31h2v14h-2z"/>
			<path id="Layer" class="s0" d="m32 27h2v18h-2z"/>
			<path id="Layer" class="s0" d="m45 30q-0.6 0-1.1-0.2-0.6-0.3-1-0.7-0.4-0.4-0.7-1-0.2-0.5-0.2-1.1v-11h2v11q0 0.4 0.3 0.7 0.3 0.3 0.7 0.3 0.4 0 0.7-0.3 0.3-0.3 0.3-0.7v-12q0-0.6-0.2-1.1-0.3-0.6-0.7-1-0.4-0.4-1-0.7-0.5-0.2-1.1-0.2h-10q-0.6 0-1.1 0.2-0.6 0.3-1 0.7-0.4 0.4-0.7 1-0.2 0.5-0.2 1.1v12q0 0.4 0.3 0.7 0.3 0.3 0.7 0.3 0.4 0 0.7-0.3 0.3-0.3 0.3-0.7v-11h2v11c0 0.8-0.3 1.6-0.9 2.1-0.5 0.6-1.3 0.9-2.1 0.9-0.8 0-1.6-0.3-2.1-0.9-0.6-0.5-0.9-1.3-0.9-2.1v-12q0-1 0.4-1.9 0.4-0.9 1.1-1.6 0.7-0.7 1.6-1.1 0.9-0.4 1.9-0.4h10q1 0 1.9 0.4 0.9 0.4 1.6 1.1 0.7 0.7 1.1 1.6 0.4 0.9 0.4 1.9v12q0 0.6-0.2 1.1-0.3 0.6-0.7 1-0.4 0.4-1 0.7-0.5 0.2-1.1 0.2z"/>
			<path id="Layer" class="s0" d="m33 26h10v2h-10z"/>
			<path id="Layer" class="s0" d="m37 18h2v2h-2z"/>
			<path id="Layer" class="s0" d="m37 22h2v2h-2z"/>
			<path id="Layer" class="s0" d="m37 14h2v2h-2z"/>
			<path id="Layer" class="s0" d="m24 45h-2v-11q0-0.2 0.1-0.4 0.1-0.2 0.2-0.3 0.1-0.1 0.3-0.2 0.2-0.1 0.4-0.1h2.9l-5.9-7.4-5.9 7.4h2.9q0.2 0 0.4 0.1 0.2 0.1 0.3 0.2 0.1 0.1 0.2 0.3 0.1 0.2 0.1 0.4v11h-2v-10h-4q-0.1 0-0.3 0-0.1-0.1-0.2-0.2-0.2 0-0.2-0.1-0.1-0.1-0.2-0.3-0.1-0.1-0.1-0.2 0-0.2 0-0.3 0-0.1 0.1-0.2 0-0.2 0.1-0.3l8-10q0.2-0.1 0.4-0.2 0.2-0.1 0.4-0.1 0.2 0 0.4 0.1 0.2 0.1 0.4 0.2l8 10q0.1 0.1 0.1 0.3 0.1 0.1 0.1 0.2 0 0.1 0 0.3 0 0.1-0.1 0.2-0.1 0.2-0.2 0.3 0 0.1-0.2 0.1-0.1 0.1-0.2 0.2-0.2 0-0.3 0h-4z"/>
			<path id="Layer" class="s0" d="m11 37h2v8h-2z"/>
			<path id="Layer" class="s0" d="m7 45h-2v-26h-4q-0.1 0-0.3 0-0.1-0.1-0.2-0.2-0.2 0-0.2-0.1-0.1-0.1-0.2-0.3-0.1-0.1-0.1-0.2 0-0.2 0-0.3 0-0.2 0.1-0.3 0-0.1 0.1-0.2l8-10q0.2-0.2 0.4-0.3 0.2-0.1 0.4-0.1 0.2 0 0.4 0.1 0.2 0.1 0.4 0.3l8 10q0.1 0.1 0.1 0.2 0.1 0.1 0.1 0.3 0 0.1 0 0.3 0 0.1-0.1 0.2-0.1 0.2-0.2 0.3 0 0.1-0.2 0.1-0.1 0.1-0.2 0.2-0.2 0-0.3 0h-4v9h-2v-10q0-0.2 0.1-0.4 0.1-0.2 0.2-0.3 0.1-0.1 0.3-0.2 0.2-0.1 0.4-0.1h2.9l-5.9-7.4-5.9 7.4h2.9q0.2 0 0.4 0.1 0.2 0.1 0.3 0.2 0.1 0.1 0.2 0.3 0.1 0.2 0.1 0.4z"/>
			<path id="Layer" class="s0" d="m0 46h48v2h-48z"/>
		</g>
	</g>
</svg>