<svg id="Layer_1" data-name="Layer 1" xmlns="http://www.w3.org/2000/svg" viewBox="0 0 1024 1024"><defs><style>.cls-1,.cls-3{fill:#325f64;}.cls-1,.cls-2{stroke:#325f64;stroke-miterlimit:10;}.cls-2{fill:none;}</style></defs><path class="cls-1" d="M846.94,228c-.38-34.27-34.09-34.33-34.33-34.33H215.69C180.06,194.93,181.37,228,181.37,228s-.05,387.38,0,421.35,34.32,34.32,34.32,34.32,560.63,2.71,596.92,0,34.33-34.32,34.33-34.32S847.32,262.36,846.94,228Zm-20,421.35s-1,13.6-14.33,14.32-596.92,0-596.92,0-14.27-.36-14.32-14.32,0-421.35,0-421.35.69-14,14.32-14.33H812.61s13.95.94,14.33,14.33S826.94,649.33,826.94,649.33Z"/><path class="cls-2" d="M215.69,213.64H812.61s13.95,1,14.33,14.33,0,421.35,0,421.35-1,13.61-14.33,14.32-596.92,0-596.92,0-14.27-.35-14.32-14.32,0-421.35,0-421.35S202.06,213.93,215.69,213.64Z"/><path class="cls-2" d="M215.69,193.64H812.61s33.95,0,34.33,34.33,0,421.35,0,421.35,2,31.61-34.33,34.32-596.92,0-596.92,0-34.27-.35-34.32-34.32,0-421.35,0-421.35S180.06,194.93,215.69,193.64Z"/><rect class="cls-2" x="236.32" y="267.36" width="556" height="294"/><path class="cls-2" d="M826.94,228c-.38-13.39-14.33-14.33-14.33-14.33H215.69c-13.63.28-14.32,14.33-14.32,14.33s-.05,407.38,0,421.35,14.32,14.32,14.32,14.32,583.63.71,596.92,0,14.33-14.32,14.33-14.32S827.32,241.36,826.94,228ZM812.32,581.36h-596v-334h596Z"/><path class="cls-1" d="M216.32,247.36v334h596v-334Zm576,314h-556v-294h556Z"/><rect class="cls-2" x="236.32" y="267.36" width="556" height="294"/><rect class="cls-2" x="236.32" y="267.36" width="556" height="294"/><path class="cls-1" d="M621.65,786.36h-215a10,10,0,0,1-8.19-15.74l3.53-5c19.2-27.42,27.74-57.93,24.71-88.23a10,10,0,0,1,9.95-11h155a10,10,0,0,1,10,11c-3,30.3,5.52,60.81,24.72,88.23l3.53,5a10,10,0,0,1-8.2,15.74Zm-174.38-100c.59,27.49-6.9,54.77-22,80H603c-15.06-25.23-22.55-52.51-22-80"/><path class="cls-1" d="M647.65,832.36h-267a32.5,32.5,0,0,1,0-65h267a32.5,32.5,0,0,1,0,65Zm-267-45a12.5,12.5,0,0,0,0,25h267a12.5,12.5,0,0,0,0-25"/><path class="cls-3" d="M515.19,200.39h14.38C524.77,200.37,520,200.35,515.19,200.39Z"/><path class="cls-3" d="M538,261.66h-1.45q-.1,1.21-.21,2.34H538Z"/><path class="cls-3" d="M492.86,249.28c.16,4.13-.09,8.28.08,12.41Z"/><path class="cls-3" d="M538,261.66h-1.45q-.1,1.21-.21,2.34H538Z"/><path class="cls-1" d="M350.88,416.33q0-70.38,0-140.75a31.43,31.43,0,0,1,.79-7.82A19.76,19.76,0,0,1,370,253.09c1.19-.05,2.38-.06,3.57-.06q138.44,0,276.86,0c5.21,0,10.14.64,14.42,3.93a19.94,19.94,0,0,1,8.22,15.7c0,1.21,0,2.42,0,3.63q0,140.42,0,280.84a34.65,34.65,0,0,1-.73,8.15,19.68,19.68,0,0,1-18.37,15c-1.3.06-2.6.06-3.89.06q-138.12,0-276.22,0a33.29,33.29,0,0,1-8.35-.8,19.89,19.89,0,0,1-14.62-18.78c0-1.43,0-2.86,0-4.28Zm308.94-95H364.25V556.44c0,1,0,2,0,3,.26,4.63,2.57,7,7.12,7.28.86.06,1.73,0,2.6,0H649.91c1,0,2,0,2.92,0,4.21-.33,6.44-2.54,6.91-6.85a29.18,29.18,0,0,0,.08-3V321.32Zm-.07-13.89V277.08c0-8.69-1.72-10.46-10.21-10.46H374.38a26,26,0,0,0-4.84.3,6,6,0,0,0-5,5,13.81,13.81,0,0,0-.27,2.94q0,15.16,0,30.32a16.14,16.14,0,0,0,.32,2.26Z"/><path class="cls-1" d="M498.5,403.16q0,25.88,0,51.75a31.14,31.14,0,0,1-.1,3.62,6.33,6.33,0,0,1-5.46,5.67,28,28,0,0,1-3.89.16c-33.87,0-67.73-.11-101.6.08-7.95.05-9.86-3.32-9.83-9.93.14-34.29.06-68.57.07-102.85,0-1.1-.06-2.2,0-3.3a6.83,6.83,0,0,1,6.41-6.67,29.15,29.15,0,0,1,3.24-.06H489c.76,0,1.52,0,2.27,0,4.68.22,7.2,2.74,7.24,7.47.07,8.13,0,16.26,0,24.39ZM391.28,450.61H485v-95H391.28Z"/><path class="cls-1" d="M525.5,402.94q0-26.2,0-52.41c0-6.66,2.2-8.9,8.77-8.9H637.49c6.43,0,8.83,2.43,8.83,8.92q0,52.41,0,104.82a23.22,23.22,0,0,1-.06,2.64,6.63,6.63,0,0,1-6.37,6.28c-1.08.09-2.16.07-3.24.07H535.05a32.41,32.41,0,0,1-3.56-.11,6.32,6.32,0,0,1-5.93-6.27c-.08-1.09,0-2.19,0-3.29Q525.5,428.82,525.5,402.94Zm107.15-47.4H539v95.11h93.65Z"/><path class="cls-1" d="M438.31,498.48H387a32,32,0,0,1-3.25-.06,6.72,6.72,0,0,1-.52-13.31,23.93,23.93,0,0,1,3.88-.23H489.06a22.79,22.79,0,0,1,3.88.23,6.45,6.45,0,0,1,5.51,7,6.55,6.55,0,0,1-5.94,6.32,31.79,31.79,0,0,1-3.24.06Z"/><path class="cls-1" d="M586,498.48H534.74a26.42,26.42,0,0,1-3.56-.1,6.54,6.54,0,0,1-5.63-6.26,6.46,6.46,0,0,1,5.17-6.95,20,20,0,0,1,3.87-.29H637.15a20,20,0,0,1,3.88.29,6.65,6.65,0,0,1,5.25,6.62,6.85,6.85,0,0,1-5.73,6.6,23.3,23.3,0,0,1-3.24.09Z"/><path class="cls-1" d="M424.74,553.11H385.47c-4.72-.08-7.85-2.9-7.76-7s3.12-6.72,7.68-6.73c26.18,0,52.37.06,78.55-.07,5.86,0,9.32,5.33,7.05,9.9-1.43,2.86-3.9,3.89-7,3.88-9.52,0-19,0-28.57,0Z"/><path class="cls-1" d="M572.73,539.43q18.81,0,37.62,0a18.4,18.4,0,0,1,3.86.3,6.44,6.44,0,0,1,5.13,6.67,6.58,6.58,0,0,1-5.36,6.52,16.54,16.54,0,0,1-3.23.17q-38.26,0-76.54,0a14.38,14.38,0,0,1-4.15-.46,6.72,6.72,0,0,1,.23-12.77,16.54,16.54,0,0,1,4.17-.41Q553.59,539.41,572.73,539.43Z"/><path class="cls-1" d="M424.65,512.2h38a23.46,23.46,0,0,1,3.56.13,6.79,6.79,0,0,1,5.53,6.75,6.62,6.62,0,0,1-5.43,6.46,21.14,21.14,0,0,1-3.56.2H386.8a23.33,23.33,0,0,1-3.55-.18,6.62,6.62,0,0,1-5.54-6.69,6.81,6.81,0,0,1,5.75-6.57,28.12,28.12,0,0,1,3.56-.1Z"/><path class="cls-1" d="M572.46,512.2h37.95a24.79,24.79,0,0,1,3.23.1,6.52,6.52,0,0,1,5.7,6.53,6.45,6.45,0,0,1-5.44,6.72,22.12,22.12,0,0,1-3.55.19H534.46a21,21,0,0,1-3.55-.2,6.38,6.38,0,0,1-5.37-6.44,6.56,6.56,0,0,1,5.42-6.77,23.46,23.46,0,0,1,3.56-.13Z"/><path class="cls-1" d="M458.45,294H387.06a21.16,21.16,0,0,1-3.56-.13,6.8,6.8,0,0,1-5.79-6.88,6.87,6.87,0,0,1,6.08-6.63,20.36,20.36,0,0,1,2.59-.06q71.88,0,143.75,0a14.9,14.9,0,0,1,3.84.35,6.44,6.44,0,0,1,4.78,6.63,6.32,6.32,0,0,1-4.75,6.3,16.09,16.09,0,0,1-4.17.4Q494.15,294,458.45,294Z"/><path class="cls-1" d="M579,293.91a6.83,6.83,0,1,1,6.84-6.85A6.94,6.94,0,0,1,579,293.91Z"/><path class="cls-1" d="M639.5,287.24a6.74,6.74,0,0,1-6.62,6.68,6.83,6.83,0,0,1,0-13.66A6.71,6.71,0,0,1,639.5,287.24Z"/><path class="cls-1" d="M612.67,287.27a6.63,6.63,0,1,1-6.35-7A6.83,6.83,0,0,1,612.67,287.27Z"/></svg>