<svg version="1.2" xmlns="http://www.w3.org/2000/svg" viewBox="0 0 48 48" width="48" height="48">
	<title>Asset 601-svg</title>
	<style>
		.s0 { fill: #51777c } 
	</style>
	<g id="Layer_2">
		<g id="_1">
			<path id="Layer" fill-rule="evenodd" class="s0" d="m24 27c-2.8 0-5-2.7-5-6q-0.1-1 0.3-2 0.3-0.9 1.1-1.6 0.7-0.8 1.6-1.1 1-0.4 2-0.3 1-0.1 2 0.3 0.9 0.3 1.6 1.1 0.8 0.7 1.1 1.6 0.4 1 0.3 2c0 3.3-2.2 6-5 6zm0-9q-0.6-0.1-1.2 0.1-0.6 0.2-1 0.7-0.5 0.4-0.7 1-0.2 0.6-0.1 1.2c0 2.2 1.4 4 3 4 1.6 0 3-1.8 3-4q0.1-0.6-0.1-1.2-0.2-0.6-0.7-1-0.4-0.5-1-0.7-0.6-0.2-1.2-0.1z"/>
			<path id="Layer" class="s0" d="m28 40h2v8h-2z"/>
			<path id="Layer" class="s0" d="m23 44h2v4h-2z"/>
			<path id="Layer" class="s0" d="m18 40h2v8h-2z"/>
			<path id="Layer" class="s0" d="m31 43q-0.6 0-1.1-0.2-0.6-0.3-1-0.7-0.4-0.4-0.7-1-0.2-0.5-0.2-1.1v-9h2v9q0 0.4 0.3 0.7 0.3 0.3 0.7 0.3 0.4 0 0.7-0.3 0.3-0.3 0.3-0.7v-10q0-0.6-0.2-1.1-0.3-0.6-0.7-1-0.4-0.4-1-0.7-0.5-0.2-1.1-0.2h-10q-0.6 0-1.1 0.2-0.6 0.3-1 0.7-0.4 0.4-0.7 1-0.2 0.5-0.2 1.1v10q0 0.4 0.3 0.7 0.3 0.3 0.7 0.3 0.4 0 0.7-0.3 0.3-0.3 0.3-0.7v-9h2v9c0 0.8-0.3 1.6-0.9 2.1-0.5 0.6-1.3 0.9-2.1 0.9-0.8 0-1.6-0.3-2.1-0.9-0.6-0.5-0.9-1.3-0.9-2.1v-10q0-1 0.4-1.9 0.4-0.9 1.1-1.6 0.7-0.7 1.6-1.1 0.9-0.4 1.9-0.4h10q1 0 1.9 0.4 0.9 0.4 1.6 1.1 0.7 0.7 1.1 1.6 0.4 0.9 0.4 1.9v10q0 0.6-0.2 1.1-0.3 0.6-0.7 1-0.4 0.4-1 0.7-0.5 0.2-1.1 0.2z"/>
			<path id="Layer" class="s0" d="m19 39h10v2h-10z"/>
			<path id="Layer" class="s0" d="m23 30h2v2h-2z"/>
			<path id="Layer" class="s0" d="m23 34h2v2h-2z"/>
			<path id="Layer" fill-rule="evenodd" class="s0" d="m10 27c-2.8 0-5-2.7-5-6q-0.1-1 0.3-2 0.3-0.9 1.1-1.6 0.7-0.8 1.6-1.1 1-0.4 2-0.3 1-0.1 2 0.3 0.9 0.3 1.6 1.1 0.8 0.7 1.1 1.6 0.4 1 0.3 2c0 3.3-2.2 6-5 6zm0-9q-0.6-0.1-1.2 0.1-0.6 0.2-1 0.7-0.5 0.4-0.7 1-0.2 0.6-0.1 1.2c0 2.2 1.3 4 3 4 1.6 0 3-1.8 3-4q0.1-0.6-0.1-1.2-0.2-0.6-0.7-1-0.4-0.5-1-0.7-0.6-0.2-1.2-0.1z"/>
			<path id="Layer" class="s0" d="m9 44h2v4h-2z"/>
			<path id="Layer" class="s0" d="m4 40h2v8h-2z"/>
			<path id="Layer" class="s0" d="m3 43q-0.6 0-1.1-0.2-0.6-0.3-1-0.7-0.4-0.4-0.7-1-0.2-0.5-0.2-1.1v-10q0-1 0.4-1.9 0.4-0.9 1.1-1.6 0.7-0.7 1.6-1.1 0.9-0.4 1.9-0.4h5v2h-5q-0.6 0-1.1 0.2-0.6 0.3-1 0.7-0.4 0.4-0.7 1-0.2 0.5-0.2 1.1v10q0 0.4 0.3 0.7 0.3 0.3 0.7 0.3 0.4 0 0.7-0.3 0.3-0.3 0.3-0.7v-9h2v9q0 0.6-0.2 1.1-0.3 0.6-0.7 1-0.4 0.4-1 0.7-0.5 0.2-1.1 0.2z"/>
			<path id="Layer" class="s0" d="m5 39h7v2h-7z"/>
			<path id="Layer" fill-rule="evenodd" class="s0" d="m38 27c-2.8 0-5-2.7-5-6q-0.1-1 0.3-2 0.3-0.9 1.1-1.6 0.7-0.8 1.6-1.1 1-0.4 2-0.3 1-0.1 2 0.3 0.9 0.3 1.6 1.1 0.8 0.7 1.1 1.6 0.4 1 0.3 2c0 3.3-2.2 6-5 6zm0-9q-0.6-0.1-1.2 0.1-0.6 0.2-1 0.7-0.5 0.4-0.7 1-0.2 0.6-0.1 1.2c0 2.2 1.4 4 3 4 1.6 0 3-1.8 3-4q0.1-0.6-0.1-1.2-0.2-0.6-0.7-1-0.4-0.5-1-0.7-0.6-0.2-1.2-0.1z"/>
			<path id="Layer" class="s0" d="m37 44h2v4h-2z"/>
			<path id="Layer" class="s0" d="m42 40h2v8h-2z"/>
			<path id="Layer" class="s0" d="m45 43q-0.6 0-1.1-0.2-0.6-0.3-1-0.7-0.4-0.4-0.7-1-0.2-0.5-0.2-1.1v-9h2v9q0 0.4 0.3 0.7 0.3 0.3 0.7 0.3 0.4 0 0.7-0.3 0.3-0.3 0.3-0.7v-10q0-0.6-0.2-1.1-0.3-0.6-0.7-1-0.4-0.4-1-0.7-0.5-0.2-1.1-0.2h-5v-2h5q1 0 1.9 0.4 0.9 0.4 1.6 1.1 0.7 0.7 1.1 1.6 0.4 0.9 0.4 1.9v10q0 0.6-0.2 1.1-0.3 0.6-0.7 1-0.4 0.4-1 0.7-0.5 0.2-1.1 0.2z"/>
			<path id="Layer" class="s0" d="m36 39h7v2h-7z"/>
			<path id="Layer" fill-rule="evenodd" class="s0" d="m24 11c-2.8 0-5-2.7-5-6q-0.1-1 0.3-2 0.3-0.9 1.1-1.6 0.7-0.8 1.6-1.1 1-0.4 2-0.3 1-0.1 2 0.3 0.9 0.3 1.6 1.1 0.8 0.7 1.1 1.6 0.4 1 0.3 2c0 3.3-2.2 6-5 6zm0-9q-0.6-0.1-1.2 0.1-0.6 0.2-1 0.7-0.5 0.4-0.7 1-0.2 0.6-0.1 1.2c0 2.2 1.4 4 3 4 1.6 0 3-1.8 3-4q0.1-0.6-0.1-1.2-0.2-0.6-0.7-1-0.4-0.5-1-0.7-0.6-0.2-1.2-0.1z"/>
			<path id="Layer" class="s0" d="m34 15h-2v-1q0-0.6-0.2-1.1-0.3-0.6-0.7-1-0.4-0.4-1-0.7-0.5-0.2-1.1-0.2h-10q-0.6 0-1.1 0.2-0.6 0.3-1 0.7-0.4 0.4-0.7 1-0.2 0.5-0.2 1.1v1h-2v-1q0-1 0.4-1.9 0.4-0.9 1.1-1.6 0.7-0.7 1.6-1.1 0.9-0.4 1.9-0.4h10q1 0 1.9 0.4 0.9 0.4 1.6 1.1 0.7 0.7 1.1 1.6 0.4 0.9 0.4 1.9z"/>
			<path id="Layer" fill-rule="evenodd" class="s0" d="m38 11c-2.8 0-5-2.7-5-6q-0.1-1 0.3-2 0.3-0.9 1.1-1.6 0.7-0.8 1.6-1.1 1-0.4 2-0.3 1-0.1 2 0.3 0.9 0.3 1.6 1.1 0.8 0.7 1.1 1.6 0.4 1 0.3 2c0 3.3-2.2 6-5 6zm0-9q-0.6-0.1-1.2 0.1-0.6 0.2-1 0.7-0.5 0.4-0.7 1-0.2 0.6-0.1 1.2c0 2.2 1.4 4 3 4 1.6 0 3-1.8 3-4q0.1-0.6-0.1-1.2-0.2-0.6-0.7-1-0.4-0.5-1-0.7-0.6-0.2-1.2-0.1z"/>
			<path id="Layer" class="s0" d="m48 23h-2v-9q0-0.6-0.2-1.1-0.3-0.6-0.7-1-0.4-0.4-1-0.7-0.5-0.2-1.1-0.2h-5v-2h5q1 0 1.9 0.4 0.9 0.4 1.6 1.1 0.7 0.7 1.1 1.6 0.4 0.9 0.4 1.9z"/>
			<path id="Layer" fill-rule="evenodd" class="s0" d="m10 11c-2.8 0-5-2.7-5-6q-0.1-1 0.3-2 0.3-0.9 1.1-1.6 0.7-0.8 1.6-1.1 1-0.4 2-0.3 1-0.1 2 0.3 0.9 0.3 1.6 1.1 0.8 0.7 1.1 1.6 0.4 1 0.3 2c0 3.3-2.2 6-5 6zm0-9q-0.6-0.1-1.2 0.1-0.6 0.2-1 0.7-0.5 0.4-0.7 1-0.2 0.6-0.1 1.2c0 2.2 1.3 4 3 4 1.6 0 3-1.8 3-4q0.1-0.6-0.1-1.2-0.2-0.6-0.7-1-0.4-0.5-1-0.7-0.6-0.2-1.2-0.1z"/>
			<path id="Layer" class="s0" d="m2 23h-2v-9q0-1 0.4-1.9 0.4-0.9 1.1-1.6 0.7-0.7 1.6-1.1 0.9-0.4 1.9-0.4h5v2h-5q-0.6 0-1.1 0.2-0.6 0.3-1 0.7-0.4 0.4-0.7 1-0.2 0.5-0.2 1.1z"/>
		</g>
	</g>
</svg>