<svg version="1.2" xmlns="http://www.w3.org/2000/svg" viewBox="0 0 48 48" width="48" height="48">
	<title>Asset 161-svg</title>
	<style>
		.s0 { fill: #51777c } 
	</style>
	<g id="Layer_2">
		<g id="_1">
			<path id="Layer" fill-rule="evenodd" class="s0" d="m10 11c-2.8 0-5-2.7-5-6q-0.1-1 0.3-2 0.3-0.9 1.1-1.6 0.7-0.8 1.6-1.1 1-0.4 2-0.3 1-0.1 2 0.3 0.9 0.3 1.6 1.1 0.8 0.7 1.1 1.6 0.4 1 0.3 2c0 3.3-2.2 6-5 6zm0-9q-0.6-0.1-1.2 0.1-0.6 0.2-1 0.7-0.5 0.4-0.7 1-0.2 0.6-0.1 1.2c0 2.2 1.3 4 3 4 1.6 0 3-1.8 3-4q0.1-0.6-0.1-1.2-0.2-0.6-0.7-1-0.4-0.5-1-0.7-0.6-0.2-1.2-0.1z"/>
			<path id="Layer" class="s0" d="m0 46h48v2h-48z"/>
			<path id="Layer" class="s0" d="m4 14h2v31h-2z"/>
			<path id="Layer" class="s0" d="m9 30h2v15h-2z"/>
			<path id="Layer" class="s0" d="m9 13h2v2h-2z"/>
			<path id="Layer" class="s0" d="m9 17h2v2h-2z"/>
			<path id="Layer" class="s0" d="m9 21h2v2h-2z"/>
			<path id="Layer" class="s0" d="m16 45h-2v-31q0-0.2 0.1-0.4 0.1-0.2 0.2-0.3 0.1-0.1 0.3-0.2 0.2-0.1 0.4-0.1h13q0.4 0 0.7-0.3 0.3-0.3 0.3-0.7 0-0.4-0.3-0.7-0.3-0.3-0.7-0.3h-17.9l-5.4 0.6q-0.6 0.1-1.1 0.3-0.5 0.3-0.8 0.7-0.4 0.4-0.6 0.9-0.2 0.5-0.2 1.1v11.4q0 0.2 0.1 0.4 0.1 0.2 0.2 0.3 0.1 0.1 0.3 0.2 0.2 0.1 0.4 0.1h1v-12h2v13q0 0.2-0.1 0.4-0.1 0.2-0.2 0.3-0.1 0.1-0.3 0.2-0.2 0.1-0.4 0.1h-2q-0.6 0-1.1-0.2-0.6-0.3-1-0.7-0.4-0.4-0.7-1-0.2-0.5-0.2-1.1v-11.4q0-0.9 0.3-1.8 0.3-0.9 1-1.6 0.6-0.7 1.4-1.1 0.8-0.4 1.7-0.5l5.5-0.6h18.1c0.8 0 1.6 0.3 2.1 0.9 0.6 0.5 0.9 1.3 0.9 2.1 0 0.8-0.3 1.6-0.9 2.1-0.5 0.6-1.3 0.9-2.1 0.9h-12z"/>
			<path id="Layer" class="s0" d="m5 25h10v2h-10z"/>
			<path id="Layer" class="s0" d="m47 38h-26q-0.2 0-0.4-0.1-0.2-0.1-0.3-0.2-0.1-0.1-0.2-0.3-0.1-0.2-0.1-0.4v-20h2v19h24v-31h-24v4h-2v-5q0-0.2 0.1-0.4 0.1-0.2 0.2-0.3 0.1-0.1 0.3-0.2 0.2-0.1 0.4-0.1h26q0.2 0 0.4 0.1 0.2 0.1 0.3 0.2 0.1 0.1 0.2 0.3 0.1 0.2 0.1 0.4v33q0 0.2-0.1 0.4-0.1 0.2-0.2 0.3-0.1 0.1-0.3 0.2-0.2 0.1-0.4 0.1z"/>
			<path id="Layer" class="s0" d="m33 37h2v8h-2z"/>
			<path id="Layer" class="s0" d="m39.1 37.4l1.8-0.8 4 10-1.8 0.8z"/>
			<path id="Layer" class="s0" d="m23.1 46.6l4-10 1.8 0.8-4 10z"/>
			<path id="Layer" class="s0" d="m33 0h2v4h-2z"/>
			<path id="Layer" class="s0" d="m39 17h2v16h-2z"/>
			<path id="Layer" class="s0" d="m39 11h2v5h-2z"/>
			<path id="Layer" class="s0" d="m35 26h2v7h-2z"/>
			<path id="Layer" class="s0" d="m35 20h2v5h-2z"/>
			<path id="Layer" class="s0" d="m31 22h2v11h-2z"/>
			<path id="Layer" class="s0" d="m31 16h2v5h-2z"/>
			<path id="Layer" class="s0" d="m27 28h2v5h-2z"/>
			<path id="Layer" class="s0" d="m27 23h2v4h-2z"/>
		</g>
	</g>
</svg>