<svg id="Layer_1" data-name="Layer 1" xmlns="http://www.w3.org/2000/svg" viewBox="0 0 1024 1024"><defs><style>.cls-1,.cls-3{fill:#325f64;}.cls-1,.cls-2{stroke:#325f64;stroke-miterlimit:10;}.cls-2{fill:none;}</style></defs><path class="cls-1" d="M844.94,227c-.38-34.27-34.09-34.33-34.33-34.33H213.69C178.06,193.93,179.37,227,179.37,227s-.05,387.38,0,421.35,34.32,34.32,34.32,34.32,560.63,2.71,596.92,0,34.33-34.32,34.33-34.32S845.32,261.36,844.94,227Zm-20,421.35s-1,13.6-14.33,14.32-596.92,0-596.92,0-14.27-.36-14.32-14.32,0-421.35,0-421.35.69-14,14.32-14.33H810.61s13.95.94,14.33,14.33S824.94,648.33,824.94,648.33Z"/><path class="cls-2" d="M213.69,212.64H810.61s13.95,1,14.33,14.33,0,421.35,0,421.35-1,13.61-14.33,14.32-596.92,0-596.92,0-14.27-.35-14.32-14.32,0-421.35,0-421.35S200.06,212.93,213.69,212.64Z"/><path class="cls-2" d="M213.69,192.64H810.61s33.95,0,34.33,34.33,0,421.35,0,421.35,2,31.61-34.33,34.32-596.92,0-596.92,0-34.27-.35-34.32-34.32,0-421.35,0-421.35S178.06,193.93,213.69,192.64Z"/><rect class="cls-2" x="234.32" y="266.36" width="556" height="294"/><path class="cls-2" d="M824.94,227c-.38-13.39-14.33-14.33-14.33-14.33H213.69c-13.63.28-14.32,14.33-14.32,14.33s-.05,407.38,0,421.35,14.32,14.32,14.32,14.32,583.63.71,596.92,0,14.33-14.32,14.33-14.32S825.32,240.36,824.94,227ZM810.32,580.36h-596v-334h596Z"/><path class="cls-1" d="M214.32,246.36v334h596v-334Zm576,314h-556v-294h556Z"/><rect class="cls-2" x="234.32" y="266.36" width="556" height="294"/><rect class="cls-2" x="234.32" y="266.36" width="556" height="294"/><path class="cls-1" d="M619.65,785.36h-215a10,10,0,0,1-8.19-15.74l3.53-5c19.2-27.42,27.74-57.93,24.71-88.23a10,10,0,0,1,9.95-11h155a10,10,0,0,1,10,11c-3,30.3,5.52,60.81,24.72,88.23l3.53,5a10,10,0,0,1-8.2,15.74Zm-174.38-100c.59,27.49-6.9,54.77-22,80H601c-15.06-25.23-22.55-52.51-22-80"/><path class="cls-1" d="M645.65,831.36h-267a32.5,32.5,0,0,1,0-65h267a32.5,32.5,0,0,1,0,65Zm-267-45a12.5,12.5,0,0,0,0,25h267a12.5,12.5,0,0,0,0-25"/><path class="cls-3" d="M600.36,451c9.06,8.93,18.31,17.93,27.41,27.06s9.12,16.59.11,25.73c-8.55,8.66-17.14,17.29-25.85,25.8s-16.07,8.55-24.69,0C568,520.46,559,511,548.86,500.72c-7.94,8.22-15.23,15.64-22.37,23.21-4.83,5.11-10.27,8.32-17.5,6.15-7-2.1-9.34-7.93-10.82-14.35q-14.34-62.46-28.72-124.92c-3.43-14.93,4.83-23.43,19.63-20Q552.26,385.3,615.39,400c15.54,3.64,18.8,15.93,7.52,27.45-7.15,7.31-14.4,14.52-21.59,21.79A9.87,9.87,0,0,0,600.36,451Zm-.75,39.5c-9.45-9.33-18.67-18.3-27.73-27.43-9.27-9.32-9.2-16.24.06-25.73,4.48-4.6,9-9.15,14.32-14.49L502.19,403.6l19.6,84.48c5-5.22,8.72-9.3,12.63-13.23,11.27-11.34,17.74-11.42,28.81-.22,8.65,8.75,17.11,17.67,26,26.89Z"/><path class="cls-3" d="M504,315.9c0,3.4.23,6.83-.05,10.21-.65,7.81-6.16,13.33-13.51,13.84s-14.1-4.38-14.88-12.11a120.94,120.94,0,0,1,0-24.73c.83-7.82,7.4-12.38,14.94-12,7.29.4,12.81,5.92,13.44,13.82C504.28,308.58,504,312.24,504,315.9Z"/><path class="cls-3" d="M518.33,343.72c.53-2.09.41-4.78,1.69-6.16,6.76-7.25,13.33-14.85,21-21,5.36-4.26,11.75-1.79,16.53,2.81,4.52,4.36,5.58,12.45,1.43,17.38a178.6,178.6,0,0,1-18.46,18.55,11,11,0,0,1-14.26.73c-3.71-2.82-6.19-7.26-9.22-11Z"/><path class="cls-3" d="M418.78,401.39c-4.46-.24-8.87-.16-13.18-.78a14.15,14.15,0,0,1-11.82-13.73c-.07-6.4,4.4-13.08,10.84-13.66a150.91,150.91,0,0,1,27.55,0c6.87.67,11,7.37,10.58,14.44a13.51,13.51,0,0,1-11.67,12.95C427,401.22,422.84,401.16,418.78,401.39Z"/><path class="cls-3" d="M460.63,430.77c-.27,1.08-.13,3.79-1.42,5.17-6.75,7.25-13.3,14.88-21,21-5.26,4.13-11.87,2-16.49-2.84s-6-11.43-1.82-16.67c5.69-7.16,12.16-14.08,19.5-19.46C448.29,411.38,460.45,418.63,460.63,430.77Z"/><path class="cls-3" d="M460.62,343.07c.16,11.32-11.93,19.09-20.85,12.71-7.57-5.42-14.08-12.64-20-19.92a10.86,10.86,0,0,1,1.35-15.29c3.64-3,10.16-6.15,13.9-4.87,11.35,3.89,18.53,13.53,25,23.35C460.69,340.15,460.45,341.89,460.62,343.07Z"/></svg>