<svg id="Layer_1" data-name="Layer 1" xmlns="http://www.w3.org/2000/svg" viewBox="0 0 1024 1024"><defs><style>.cls-1,.cls-3{fill:#325f64;}.cls-1,.cls-2,.cls-3{stroke:#325f64;stroke-miterlimit:10;}.cls-2{fill:none;}.cls-3{stroke-width:2px;}</style></defs><path class="cls-1" d="M844.94,227c-.38-34.27-34.09-34.33-34.33-34.33H213.69C178.06,193.93,179.37,227,179.37,227s-.05,387.38,0,421.35,34.32,34.32,34.32,34.32,560.63,2.71,596.92,0,34.33-34.32,34.33-34.32S845.32,261.36,844.94,227Zm-20,421.35s-1,13.6-14.33,14.32-596.92,0-596.92,0-14.27-.36-14.32-14.32,0-421.35,0-421.35.69-14,14.32-14.33H810.61s13.95.94,14.33,14.33S824.94,648.33,824.94,648.33Z"/><path class="cls-2" d="M213.69,212.64H810.61s13.95,1,14.33,14.33,0,421.35,0,421.35-1,13.61-14.33,14.32-596.92,0-596.92,0-14.27-.35-14.32-14.32,0-421.35,0-421.35S200.06,212.93,213.69,212.64Z"/><rect class="cls-2" x="214.5" y="246.5" width="596" height="334"/><rect class="cls-2" x="234.5" y="266.5" width="556" height="294"/><path class="cls-2" d="M213.69,192.64H810.61s33.95,0,34.33,34.33,0,421.35,0,421.35,2,31.61-34.33,34.32-596.92,0-596.92,0-34.27-.35-34.32-34.32,0-421.35,0-421.35S178.06,193.93,213.69,192.64Z"/><rect class="cls-2" x="234.32" y="266.36" width="556" height="294"/><path class="cls-2" d="M824.94,227c-.38-13.39-14.33-14.33-14.33-14.33H213.69c-13.63.28-14.32,14.33-14.32,14.33s-.05,407.38,0,421.35,14.32,14.32,14.32,14.32,583.63.71,596.92,0,14.33-14.32,14.33-14.32S825.32,240.36,824.94,227ZM810.32,580.36h-596v-334h596Z"/><path class="cls-1" d="M214.32,246.36v334h596v-334Zm576,314h-556v-294h556Z"/><rect class="cls-2" x="234.32" y="266.36" width="556" height="294"/><rect class="cls-2" x="234.32" y="266.36" width="556" height="294"/><path class="cls-1" d="M619.65,785.36h-215a10,10,0,0,1-8.19-15.74l3.53-5c19.2-27.42,27.74-57.93,24.71-88.23a10,10,0,0,1,9.95-11h155a10,10,0,0,1,10,11c-3,30.3,5.52,60.81,24.72,88.23l3.53,5a10,10,0,0,1-8.2,15.74Zm-174.38-100c.59,27.49-6.9,54.77-22,80H601c-15.06-25.23-22.55-52.51-22-80"/><path class="cls-1" d="M645.65,831.36h-267a32.5,32.5,0,0,1,0-65h267a32.5,32.5,0,0,1,0,65Zm-267-45a12.5,12.5,0,0,0,0,25h267a12.5,12.5,0,0,0,0-25"/><path class="cls-3" d="M352.28,314.66c0-5.1,0-10,0-14.91,0-5.74,2-7.72,7.84-7.73H397.6c5.72,0,7.71,2,7.74,7.87,0,4.67,0,9.34,0,14.29H509.13a25.53,25.53,0,0,0,.27-2.56c0-4.2,0-8.4,0-12.6.06-4.68,2.22-7,6.77-7q19.81-.07,39.63,0c4.17,0,6.47,2.25,6.61,6.44s0,8.4,0,12.6c0,1.17.1,2.35.14,3.18,6.11,1.51,12,2.55,17.65,4.45,23.47,7.9,37.32,24.51,42.07,48.53,2.11,10.68,3.08,21.59,4.4,32.41,1.45,11.9,2.73,23.82,4,35.74q1.63,14.85,3.15,29.7c.88,8.58,2.07,17.16,2.5,25.77,1.06,20.81-9.88,40.33-32.89,45.08-15.73,3.24-29.39-1.26-41.41-11.5-9.6-8.18-17-18.25-24-28.6-4-6-8-11.95-12.07-17.91-.72-1.07-1.53-2.07-2.34-3.16-15.05,20-43.73,13.73-49.89-9.06H441c-3.29,11-10.29,18.6-21.91,20.67-11.45,2-20.67-2.32-27.87-11.93-1,1.34-1.83,2.45-2.62,3.59-7.26,10.43-14.35,21-21.82,31.28a79.84,79.84,0,0,1-19.42,19.13c-11.86,8.13-24.83,10.54-38.73,6.9-19.15-5-27.88-20.14-29.89-35.69-1-8.11.32-16.05,1.07-24,1.22-13,2.63-26,4-39q1.94-17.88,4.06-35.74c1.2-10.11,2.32-20.25,3.81-30.32,4.35-29.31,24.46-49.74,53.69-54.78C347.49,315.42,349.61,315.09,352.28,314.66Zm64.1,11.77c-1.22-.11-2.15-.27-3.09-.27-15.37,0-30.74-.12-46.12,0-7.18.08-14.47,0-21.51,1.15C323.84,331,305.92,350,303.1,371.94c-1.62,12.61-3.07,25.23-4.52,37.86q-2.13,18.4-4.08,36.83-1.72,15.92-3.31,31.84c-.73,7.52-1.69,15-.33,22.59,2.17,12.05,9.78,20.31,21.69,23.17,11,2.64,20.89.13,29.85-6.52,7.32-5.42,13.16-12.28,18.36-19.66,8.5-12.07,16.83-24.24,25.15-36.43a7.88,7.88,0,0,0,1-3.69c1.05-13,10.95-23.84,23.16-25.35,13.63-1.68,25.57,5.52,29.91,18.33.8,2.33,1.89,2.87,4.1,2.84,9-.09,18,0,27-.05.94,0,1.87-.13,2.8-.2.33-.83.63-1.48.85-2.15,4.48-13.17,16.61-20.67,30.36-18.75,12.4,1.73,22,12.63,22.93,25.93a7.75,7.75,0,0,0,1.2,3.6c5.91,8.75,11.78,17.53,17.92,26.12,5,7,10.05,14.08,15.68,20.6,7.43,8.62,16.29,15.4,28.25,16.26,13.72,1,26.88-4.86,31.91-19.74,2-6,2.11-12.25,1.51-18.5-.58-6.09-1.31-12.16-2-18.24-1.07-10.14-2.07-20.28-3.17-30.42-1.3-11.92-2.67-23.83-4-35.74-1.21-10.48-2.14-21-3.77-31.43-4-25.76-26.64-44.77-53-44.87-18.74-.08-37.47,0-56.21,0-1.17,0-2.34.1-3.38.15a4.35,4.35,0,0,0-.35,1c0,7.44-.33,14.9,0,22.33a16,16,0,0,1-10.47,15.64A31.58,31.58,0,0,1,478,366.93c-14.65.19-29.31.12-44,.09a18.37,18.37,0,0,1-5-.61,17,17,0,0,1-12.64-16.81C416.35,341.93,416.38,334.27,416.38,326.43Zm70.58,0h-59c0,7.76-.08,15.2,0,22.63.06,4.1,2.08,6.22,6.34,6.25,15.36.13,30.73.06,46.1,0a7.62,7.62,0,0,0,2.11-.38c3-.85,4.36-2.35,4.41-5.36C487,342,487,334.3,487,326.47ZM414.19,475.12a15.55,15.55,0,0,0,15.66-15.47,15.68,15.68,0,1,0-15.66,15.47Zm86.28,0a15.58,15.58,0,0,0,15.94-15.2,15.67,15.67,0,1,0-31.34-.51A15.55,15.55,0,0,0,500.47,475.12ZM393.32,303.85H364.15V314.2h29.17Zm127.78,10.4h29.26V303.8h-29c-.1,1-.23,1.82-.24,2.64C521.08,308.93,521.1,311.43,521.1,314.25Z"/><path class="cls-3" d="M375.92,417.58c-3.65,14.29-8.45,18.75-19.86,18.62-10.25-.11-15.33-5.21-18.57-18.66-13.83-1.79-19.53-10.71-18.51-23,.77-9.25,7.87-16,18.58-16.9,1-6.14,2.58-12.13,8.15-16A18.43,18.43,0,0,1,357,358.53c10.44.19,15,4.79,19,19,5.88.29,11,2.44,14.79,7.3,3.18,4.11,4,8.83,3.88,13.9C394.41,408.92,388.26,415.21,375.92,417.58Zm-26.87-3.92a52.39,52.39,0,0,0,.95,6c1,3.74,3.48,5.25,7.63,4.93,3.58-.26,5.65-2.15,6.12-5.87.28-2.25.24-4.54.33-6.81.16-3.76,1.61-5.49,5.34-6,2.13-.29,4.3-.28,6.45-.42,4.68-.32,6.7-2.49,6.94-7.4.26-5.35-1.71-8.11-6.39-8.69-1.9-.24-3.84-.05-5.75-.2-4.84-.38-6.45-2.33-6.57-7.14a29.74,29.74,0,0,0-1-7.76c-.93-3.15-2.88-4-6.79-3.94-3.47.08-5.44,1.25-6.19,4.34a36.39,36.39,0,0,0-.76,7.46c-.12,4.84-1.71,6.68-6.61,7-1.91.14-3.84,0-5.75.12-3.46.29-5.37,1.76-6,5.17a18.57,18.57,0,0,0,.14,6.35c.49,2.8,2.46,4.29,5.3,4.5,1.91.15,3.84.15,5.74.34C348.14,406.27,349.29,407.58,349.05,413.66Z"/><path class="cls-3" d="M536.07,365a17.8,17.8,0,0,1,35.59.47,17.8,17.8,0,1,1-35.59-.47ZM554,359.14a6.32,6.32,0,0,0-6.2,6.19,6.1,6.1,0,0,0,6.26,6,5.81,5.81,0,0,0,5.89-5.89A6.07,6.07,0,0,0,554,359.14Z"/><path class="cls-3" d="M553.77,452.65A17.7,17.7,0,1,1,571.69,435,17.78,17.78,0,0,1,553.77,452.65Zm.17-11.54a6.12,6.12,0,0,0,6-6.33,5.9,5.9,0,0,0-6.26-5.92,6.21,6.21,0,0,0-5.9,6.05A6.34,6.34,0,0,0,553.94,441.11Z"/><path class="cls-3" d="M504.91,400.79a17.7,17.7,0,1,1,35.39.65,17.7,17.7,0,0,1-35.39-.65Zm23.86.25a6.19,6.19,0,0,0-6.26-6.07,6,6,0,0,0-6,5.86,6.26,6.26,0,0,0,6,6.37A6.45,6.45,0,0,0,528.77,401Z"/><path class="cls-3" d="M585.49,383.29a17.74,17.74,0,1,1-18,17.52A17.75,17.75,0,0,1,585.49,383.29Zm-.22,23.91a6.42,6.42,0,0,0,6.08-6.36,6.18,6.18,0,0,0-6.43-5.88,5.87,5.87,0,0,0-5.77,6.05A6.16,6.16,0,0,0,585.27,407.2Z"/><path class="cls-1" d="M748.23,483a7.85,7.85,0,0,0-1.19,0H732.36l1-.92c10.25-10.06,13.76-22.11,10.12-36a34.16,34.16,0,0,0-16.69-21.47,8.68,8.68,0,0,1-4.7-8.27c.06-8.43,0-16.86,0-25.29a1.82,1.82,0,0,1,1.13-1.93,7.38,7.38,0,0,0,3.57-9.12,7.65,7.65,0,0,0-7.4-5c-4.46,0-8.92,0-13.38,0-2.58,0-5.16,0-7.74,0a7.63,7.63,0,0,0-7.34,5.65,7.36,7.36,0,0,0,3.76,8.43,1.85,1.85,0,0,1,1.13,1.95c0,8.48,0,17,0,25.43,0,.55,0,1.09-.09,1.63-.26,3.27-2.12,5.3-5,6.64-.25-.37-.49-.68-.69-1-2.72-4.71-5.41-9.45-8.18-14.14a26.94,26.94,0,0,1-3.69-14q0-14.36,0-28.71a1.79,1.79,0,0,1,1.16-1.91,7.8,7.8,0,0,0-3.87-14.75c-10,0-19.93,0-29.9,0a9.76,9.76,0,0,0-2.35.23,7.86,7.86,0,0,0-5.8,6.47,7.71,7.71,0,0,0,4.22,8,1.79,1.79,0,0,1,1.14,1.92c0,9.52-.08,19,0,28.56a28,28,0,0,1-4,14.71c-3.17,5.37-6.25,10.79-9.37,16.19-3.39,5.88-4.45,11.37-7.84,17.25.42,2.24-1.35,4.9-.68,7.19.31-.54.62-1.08.94-1.62.54-.94,1.08-1.87,1.69-2.91l2.42,1.78c-.25.46-.46.89-.7,1.31l-3.12,5.4c.65,2,1.34,4,2,6,.22-.32.42-.67.62-1l5.25-9.08c1.25.6,2.44,1.18,3.64,1.73A27.8,27.8,0,0,0,644,454.91a26.45,26.45,0,0,0,13.15-3.12A91.55,91.55,0,0,0,669,444.15a69.43,69.43,0,0,1,11.76-7.21,30.36,30.36,0,0,1,8.83-2.45,1.33,1.33,0,0,1,1.52.79c6.69,11.64,13.36,23.27,20.11,34.87A8.4,8.4,0,0,1,707,482.4a11.72,11.72,0,0,1-3.05.5c-3.37.07-6.75,0-10.12,0h-64.3a34.91,34.91,0,0,1-.08,4.8h118c2.12,0,2.63-.56,2.6-2.64A1.89,1.89,0,0,0,748.23,483ZM642.07,357.54a3.1,3.1,0,0,1,2.71-2.57,9,9,0,0,1,1,0H675a9,9,0,0,1,1,0,3,3,0,0,1,.08,5.95,9.42,9.42,0,0,1-1.19,0H660.32c-4.86,0-9.72,0-14.57,0a5.14,5.14,0,0,1-1.88-.29A2.92,2.92,0,0,1,642.07,357.54Zm25.62,81.65c-3.49,2.44-7,4.84-10.59,7.14a23.55,23.55,0,0,1-7.77,3.25,21.16,21.16,0,0,1-13.06-1.38c-1.27-.54-2.49-1.18-3.82-1.81.27-.52.46-.9.67-1.27,1.68-2.92,3.37-5.83,5-8.75a7.31,7.31,0,0,0,.59-1.19,2.33,2.33,0,0,0-1.06-2.81,2.3,2.3,0,0,0-3,.52A7.19,7.19,0,0,0,634,434q-2.43,4.17-4.84,8.34c-.25.42-.52.83-.85,1.36L625.88,442c.26-.49.49-1,.75-1.41q8.07-13.95,16.13-27.9a31.29,31.29,0,0,0,4.41-12.34,47.34,47.34,0,0,0,.25-5.19c0-9.17,0-18.34,0-27.51v-1.71h25.79c0,.52.07,1,.07,1.56,0,9.27,0,18.54,0,27.81a32.61,32.61,0,0,0,4.58,17.12c3.13,5.28,6.16,10.62,9.22,15.94.27.46.52.93.84,1.53C680.15,430.93,673.84,434.87,667.69,439.19Zm27.82-56.73a2.5,2.5,0,0,1,2.2-2.56,7.34,7.34,0,0,1,1-.06h20.38a7.17,7.17,0,0,1,1,.07,2.64,2.64,0,0,1,2.19,2.61,2.61,2.61,0,0,1-2.25,2.55,10.48,10.48,0,0,1-1.48.07H699.14a10.48,10.48,0,0,1-1.48-.07A2.48,2.48,0,0,1,695.51,382.46Zm11.67,71.07c-2.89-5-5.75-9.94-8.63-14.91-1.55-2.7-3.12-5.39-4.67-8.1-.27-.46-.52-.94-.86-1.56l1-.61a12.55,12.55,0,0,0,6.54-11.55q0-12.48,0-25v-1.7H717.3v1.6c0,8.33.05,16.65,0,25a12.54,12.54,0,0,0,6.78,11.82,30.66,30.66,0,0,1,13.87,16.09c.53,1.38.89,2.82,1.31,4.24.17.57.06.95-.64,1-3.79.39-7.26,1.84-10.77,3.17a35.61,35.61,0,0,1-8.4,2.37,29.33,29.33,0,0,1-11.19-.79C707.83,454.51,707.44,454,707.18,453.53Zm17.61,28.84a2.84,2.84,0,0,1-1.35.53c-3,.05-5.94,0-9.05,0,.26-.45.44-.78.64-1.1a12.8,12.8,0,0,0,.43-13.91c-1.17-2.12-2.42-4.2-3.63-6.3-.24-.42-.46-.85-.76-1.4.78,0,1.42,0,2,.1a32.63,32.63,0,0,0,14.7-2.1c3-1.09,6.06-2.12,9.11-3.12a24.2,24.2,0,0,1,3-.57,17.61,17.61,0,0,1,0,3.91A30.72,30.72,0,0,1,724.79,482.37Z"/><path class="cls-1" d="M653.34,438a8.6,8.6,0,1,1,8.59-8.6A8.62,8.62,0,0,1,653.34,438Zm0-12.27a3.74,3.74,0,0,0-3.75,3.76,3.78,3.78,0,1,0,7.56-.06A3.73,3.73,0,0,0,653.3,425.69Z"/><path class="cls-1" d="M670.22,408.9a7.22,7.22,0,1,1-7.22-7.17A7.34,7.34,0,0,1,670.22,408.9Zm-4.93,0a2.26,2.26,0,0,0-2.36-2.31,2.32,2.32,0,0,0-2.32,2.39,2.28,2.28,0,0,0,2.39,2.29A2.25,2.25,0,0,0,665.29,408.9Z"/><path class="cls-1" d="M664.08,387.52a5.83,5.83,0,0,1-5.91,5.91,6,6,0,0,1-6-5.92,6.08,6.08,0,0,1,6-6A5.91,5.91,0,0,1,664.08,387.52Zm-5.86-1a1,1,0,0,0-1.11,1.08,1,1,0,0,0,1,1.07,1.05,1.05,0,0,0,1.2-1A1.09,1.09,0,0,0,658.22,386.47Z"/><path class="cls-1" d="M715.75,452.87a6.71,6.71,0,0,1-6.8-6.75,6.82,6.82,0,0,1,6.83-6.92,6.84,6.84,0,1,1,0,13.67Zm0-4.77a2.08,2.08,0,0,0,2.09-1.9,2,2,0,1,0-4.06-.12A2.08,2.08,0,0,0,715.7,448.1Z"/><path class="cls-1" d="M709.93,395.16a6.08,6.08,0,1,1,0,12.15,6.08,6.08,0,0,1,0-12.15Zm0,4.89a1.23,1.23,0,1,0-.06,2.46,1.25,1.25,0,0,0,1.23-1.22A1.16,1.16,0,0,0,710,400.05Z"/><path class="cls-1" d="M710.5,429.65a6,6,0,0,1-6,6.09,6.1,6.1,0,0,1-6.09-6,6,6,0,0,1,6-6A5.93,5.93,0,0,1,710.5,429.65Zm-5.93-1.2a1.21,1.21,0,0,0-1.27,1.15,1.21,1.21,0,1,0,2.41.13A1.2,1.2,0,0,0,704.57,428.45Z"/><path class="cls-1" d="M729.87,438.48a2.47,2.47,0,0,1-1.15,2.48,2.34,2.34,0,0,1-2.53,0,4.37,4.37,0,0,1-.88-.79,22.33,22.33,0,0,0-5.1-4,5.14,5.14,0,0,1-.85-.59,2.27,2.27,0,0,1-.6-2.82,2.31,2.31,0,0,1,2.71-1.27,4.26,4.26,0,0,1,1.08.45A25.5,25.5,0,0,1,729,437,7.51,7.51,0,0,1,729.87,438.48Z"/><path class="cls-1" d="M731.07,441.78a2.15,2.15,0,0,1,2.08,1.16,32.11,32.11,0,0,1,1.53,3.51,2.28,2.28,0,0,1-1.39,2.89,2.19,2.19,0,0,1-2.91-1,26.57,26.57,0,0,1-1.52-3.51A2.28,2.28,0,0,1,731.07,441.78Z"/></svg>