<svg version="1.2" xmlns="http://www.w3.org/2000/svg" viewBox="0 0 720 720" width="720" height="720">
	<title>arduino-svg</title>
	<style>
		.s0 { fill: #325e64 } 
	</style>
	<g id="Layer_2">
		<path id="Layer" fill-rule="evenodd" class="s0" d="m564.6 480.4v23.7c7.5 0 14.6 0 21.8 0 6.9 0 9.5 2.6 9.5 9.5q0.1 14.1 0 28.1c0 7.1-2.6 9.6-9.9 9.6-7 0-14 0-21.3 0v15.8h17.8c1.8 0 3.6 0 5.4 0 5 0.3 8.1 3.5 8 8.1-0.1 4.4-3.2 7.5-8 7.6-7.6 0.1-15.3 0-23.5 0v31.3c0 5.3 0.1 10.5 0 15.8-0.1 5-3 7.8-8 8.1-1.3 0-2.6 0-3.9 0h-417.8c-9.8 0-11.7-1.9-11.7-11.8q0-79.1 0-158.1 0-0.6 0-1.1 0-0.6 0-1.1 0-0.6 0-1.1 0.1-0.6 0.1-1.1c0.2-2 1.1-3.7 2.6-5 1.5-1.3 3.3-2 5.3-2 1.9 0 3.8 0.8 5.2 2.1 1.4 1.3 2.3 3.1 2.5 5q0 0.6 0.1 1.1 0 0.6 0 1.1 0 0.6 0 1.1 0 0.6 0 1.1v153.9h189.2q0-11.4 0-22.9c0-4.4 2-7.3 6.2-8.2 5-1.2 9.4 2.4 9.5 7.9 0.1 7.6 0 15.3 0 23.2h15.9c0-7.6-0.1-15.3 0-22.9 0-4.7 2.6-7.8 6.7-8.3 4.9-0.7 8.8 2.7 8.9 8 0.2 7.6 0.1 15.1 0.1 23h15.8c0-7 0-14.1 0-21.3 0-6.4 2.6-9.7 7.7-9.8 5.1 0 7.9 3.4 8 9.6 0 7.1 0 14.1 0 21.6h15.8c0-7.1 0-14.3 0-21.4 0-6.4 2.7-9.7 7.8-9.8 5 0 7.9 3.4 7.9 9.7 0 7 0 14.1 0 21.5h15.8q0-10.7 0-21.4c0-6.4 2.8-9.8 7.8-9.8 5.1 0 7.9 3.4 7.9 9.7 0 7 0 14.1 0 21.5h15.8q0-10.7 0-21.5c0-6.3 2.8-9.7 7.9-9.7 5.1 0 7.8 3.4 7.9 9.7 0 7.1 0 14.1 0 21.5h47v-441.1h-22.2c-8.2 0-16.4 0.1-24.6 0-5-0.1-8.2-3.4-8.1-8 0.1-4.4 3.2-7.6 7.9-7.7q27.6-0.1 55.1 0c5 0 7.8 3.1 7.9 8.2 0.1 4.9 0 9.8 0 15.4 5.1 0 9.9 0 14.8 0 5.5 0.1 8.8 3 8.8 7.8 0.1 4.7-3.2 7.8-8.6 7.9-2.5 0-4.9 0-7.4 0h-7.3v15.8c4.8 0 9.7-0.1 14.6 0 5.4 0.1 8.7 3 8.7 7.8 0 4.8-3.3 7.8-8.7 7.9-2.4 0.1-4.9 0-7.4 0h-7.1v15.8c4.8 0 9.7 0 14.5 0 5.5 0.1 8.7 3.1 8.7 7.9 0 4.7-3.3 7.7-8.7 7.8-4.7 0.1-9.5 0-14.6 0v47.3q10.9 0 21.6 0c6.9 0 9.6 2.7 9.6 9.4q0 41.9 0 83.8c0 5.9-2.9 9.2-7.8 9.2-4.9 0-7.9-3.3-7.9-9.1q0-35.7 0-71.4v-5.8h-15.5v133.5h15.5c0-7.5 0.1-15.2 0-22.8 0-3.9 1.7-6.7 5.3-8 1.1-0.5 2.4-0.6 3.6-0.5 1.2 0.1 2.4 0.6 3.4 1.3 1 0.7 1.9 1.6 2.5 2.7 0.6 1.1 0.9 2.3 0.9 3.6 0.2 10.6 0.1 21.3 0 32-0.1 4.8-3.2 7.6-8.3 7.7-3.8 0.1-7.6 0-11.4 0zm0.1 54.9h15.1v-15.3h-15.1z"/>
		<path id="Layer" fill-rule="evenodd" class="s0" d="m264.9 362.1h15.8v-146.1q0-0.6 0-1.1 0-0.6 0-1.1 0-0.6 0-1.1 0.1-0.6 0.1-1.1c0.2-2 1.1-3.7 2.6-5 1.4-1.3 3.3-2 5.2-2 2 0 3.8 0.7 5.3 2 1.4 1.3 2.3 3.1 2.5 5q0 0.5 0.1 0.9 0 0.4 0 0.9 0 0.4 0 0.8 0 0.4 0 0.9 0 76.1 0 152.2c0 8.4-2.3 10.7-10.9 10.7h-89.2c-7.8 0-10.3-2.5-10.3-10.3q0-76.6 0-153.2c0-7.4 2.5-9.9 10.1-9.9q29 0 58.1 0c8.2 0 10.6 2.3 10.6 10.5q0 70.4 0 140.8zm-62.7-141.5v141.2h15.2v-141.2zm31.5 0v141.2h15.2v-141.2z"/>
		<path id="Layer" fill-rule="evenodd" class="s0" d="m383 283.4v-15.8c-5 0-9.9 0.1-14.8 0-5.4-0.1-8.7-3.1-8.7-7.8 0-4.8 3.3-7.8 8.7-7.9 4.8 0 9.5 0 13.9 0 1.1-4.6 0.8-10.2 3.5-12.9 2.6-2.8 8.1-2.7 13.3-4.2 0-3.2 0-7.6 0-12 0-6.8 2.5-10.2 7.7-10.3 5.2 0 8 3.4 8 10.1q0 5.9 0.1 11.8 0 0.2 0 0.4 0 0.1 0 0.3 0.1 0.2 0.1 0.3 0 0.2 0.1 0.4h15.5c0-4.8 0-9.6 0-14.5 0.1-5.5 3-8.7 7.8-8.8 4.7 0 7.8 3.2 7.9 8.7 0.1 4.7 0 9.5 0 14.6h15.8c0-4.8 0-9.7 0-14.5 0.1-5.5 3.1-8.8 7.9-8.8 4.7 0 7.8 3.3 7.9 8.7 0 4.7 0 9.5 0 13.9 4.6 1.1 10.1 0.8 12.9 3.4 2.7 2.7 2.7 8.2 4.2 13.4 3.4 0 7.9 0 12.4 0 6.4 0 9.8 2.7 9.9 7.7 0 5.3-3.4 8-10.1 8-4 0-7.9 0-11.8 0.1q-0.2 0-0.4 0-0.1 0-0.3 0.1-0.2 0-0.3 0-0.2 0-0.4 0.1v15.5c4.8 0 9.6 0 14.5 0 5.4 0.1 8.7 3.1 8.8 7.8 0 4.8-3.3 7.9-8.7 7.9-4.7 0.1-9.5 0-14.6 0v15.8c4.8 0 9.7 0 14.5 0 5.5 0.1 8.7 3.1 8.8 7.8 0 4.8-3.3 7.8-8.7 7.9-4.7 0.1-9.2 0.1-13.8 0.2-0.2 0-0.3 0.1-0.2 0-1 4.5-0.8 10-3.4 12.8-2.6 2.7-8.2 2.7-13.3 4.2 0 3.7 0 8.5 0 13.4-0.1 5.5-3 8.8-7.8 8.8-4.7 0.1-7.8-3.2-7.9-8.6-0.1-4.7 0-9.5 0-14.6h-15.8c0 4.8 0 9.6 0 14.5-0.1 5.4-3.1 8.7-7.8 8.8-4.8 0-7.8-3.3-7.9-8.7-0.1-2.5 0-4.9 0-7.4v-7.2h-15.8c0 4.8 0 9.7 0 14.6-0.1 5.4-3.2 8.7-7.9 8.7-4.8 0-7.8-3.3-7.8-8.8-0.1-4.7 0-9.5 0-13.8-4.7-1.1-10.2-0.9-13-3.5-2.8-2.7-2.7-8.2-4.2-13.4-3.7 0-8.6 0.1-13.5 0-5.4 0-8.7-3-8.7-7.7-0.1-4.8 3.2-7.8 8.6-7.9 2.4-0.1 4.9 0 7.4 0h7.2v-15.9c-4.8 0-9.6 0.1-14.5 0-5.4 0-8.7-3-8.7-7.8-0.1-4.7 3.2-7.8 8.6-7.9 2.5 0 5 0 7.4 0zm16.3 46.9h78.2v-78.2h-78.2z"/>
		<path id="Layer" class="s0" d="m138.8 180.9v248.4q0 0.7 0 1.3 0 0.6 0 1.2 0 0.6 0 1.2 0 0.7-0.1 1.3c-0.3 1.8-1.2 3.6-2.6 4.8-1.5 1.2-3.3 1.9-5.2 1.9-1.9 0-3.7-0.7-5.1-1.9-1.5-1.3-2.4-3-2.7-4.9q0-0.5 0-1 0-0.5-0.1-1 0-0.4 0-0.9 0-0.5 0.1-1 0-127.1 0-254.2c0-8.8 2.1-10.9 11-10.9h332.5c1.4 0 2.7-0.1 4 0 4.3 0.4 4.3 15.2 0.2 15.6q-0.6 0.1-1.2 0.1-0.6 0-1.2 0-0.6 0-1.2 0-0.7 0-1.3 0h-327.1z"/>
		<path id="Layer" fill-rule="evenodd" class="s0" d="m430.2 496.2q-46.1 0-92.1 0c-7.6 0-10.1-2.5-10.1-10q0-21.7 0-43.3c0-7.2 2.6-9.7 9.8-9.7h185.2c7.3 0 9.9 2.6 9.9 9.7q0 21.9 0 43.8c0 6.8-2.7 9.5-9.6 9.5q-46.6 0-93.1 0zm55.2-47h-15.2c-1.3 12.9-2.6 15.7-8.1 15.4-10.4-0.7-7.3-9.3-8.2-15.4h-15.4c-0.8 6.2 2.1 14.8-7.5 15.2-10.8 0.5-7.8-9-8.6-15.2h-15.5c-0.6 6.2 2.1 14.8-7.4 15.2-10.8 0.5-7.8-9-8.6-15.2h-15.5c-0.7 6.2 2.1 14.8-7.5 15.2-10.8 0.4-7.7-9-8.6-15.2h-15.2v30.8h172.8v-30.8h-15.2c-1.3 12.9-2.9 15.7-8.6 15.4-5.6-0.2-7-3-7.7-15.4z"/>
		<path id="Layer" class="s0" d="m516.9 559.3v-31.3h-15.3c-0.9 6.2 2.1 15.7-8.7 15.2-9.5-0.4-6.7-9-7.4-15.2h-15.5c-0.8 6.2 2.2 14.7-8.2 15.4-5.4 0.4-6.7-2.4-8.1-15.4h-15.2c-0.8 6.2 2.1 15.4-8.2 15.2-10-0.1-7.2-8.9-7.9-15.2h-15.5c-0.7 6.3 2.2 15.4-8.2 15.2-10-0.1-7-8.9-7.9-15.2h-15.4c-0.8 6.3 2.1 15.4-8.2 15.2-10-0.1-7.1-9-7.9-15.2h-15.2v31.3h5.1q47.8 0 95.5 0c5.5 0 8.8 2.4 9.3 6.7 0.7 5.1-2.8 9-8.5 9-13.9 0.1-27.9 0-41.8 0h-65.1c-8.2 0-10.6-2.3-10.6-10.4q0-21.7 0-43.3c0-6.6 2.7-9.3 9.2-9.3q93.1 0 186.2 0c6.8 0 9.5 2.6 9.5 9.5q0 21.9 0 43.8c0 6.9-2.7 9.7-9.4 9.7q-22.2 0-44.3 0c-6 0-9.3-2.9-9.3-7.8-0.1-4.9 3.3-7.9 9.1-7.9 12.5-0.1 24.9 0 37.9 0z"/>
		<path id="Layer" class="s0" d="m296.3 559.3v-78.5h-125.7v78.5h5.1q36.2 0 72.4 0c3.8 0 7.2 1.1 8.1 4.8 0.6 2.5 0.1 6-1.3 8.1-1.2 1.7-4.5 2.7-6.8 2.7-28.1 0.2-56.2 0.2-84.3 0.1-6.5 0-9.2-2.8-9.2-9.3q0-45.8 0-91.6c0-6.6 2.7-9.4 9.2-9.4q69.7 0 139.4 0c6.2 0 9 2.8 9 9.1q0 46 0 92.1c0 6.2-2.8 9.1-9 9.1q-10.8 0.1-21.6 0c-5.5 0-8.8-3-8.8-7.8 0-4.7 3.2-7.8 8.7-7.9 2.4-0.1 4.9 0 7.4 0z"/>
		<path id="Layer" fill-rule="evenodd" class="s0" d="m241 417q0.1-0.2 0.1-0.4 0.1-0.2 0.1-0.4 0-0.2 0-0.5 0.1-0.2 0.1-0.4c-0.9-12.4 2.8-14.2 14.2-13.7 7.6 0.3 15.1 0 22.7 0 7.9 0 10.3 2.4 10.3 10.2 0 1.6 0 3.3 0 5.6 2.7 0 5-0.1 7.4 0 5.1 0.2 8.3 3.1 8.4 7.7 0.1 4.8-3.2 7.9-8.6 8-2.1 0.1-4.3 0-7.2 0 0 2.7 0.1 5.2 0 7.8-0.2 4.9-3 7.9-8.1 7.9q-15.5 0.2-31 0c-5.2 0-7.9-3-8.1-8.4-0.1-2.2 0-4.5 0-7h-15.8c0 2.2 0 4.6 0 7-0.2 5.4-2.9 8.4-8.1 8.4q-15.5 0.2-31 0c-5.1 0-7.9-2.9-8.1-7.9-0.1-2.4 0-4.8 0-7.5-6.5-0.9-15 2.1-15.7-8.2-0.4-5.6 2.2-6.8 15.7-8.2 0-2.3-0.1-4.7 0-7.1 0.1-5.1 2.9-8.1 7.8-8.2q15.7-0.2 31.5 0c4.9 0.1 7.7 3.1 7.9 8.2 0.1 2.2 0 4.5 0 7.2zm-46.8 15.8h15.2v-15.3h-15.2zm63.1 0.1h15.2v-15.2h-15.2z"/>
		<path id="Layer" class="s0" d="m446 417.4q-37.9 0-75.8 0c-1.7 0-3.4 0.2-4.9-0.3-3.9-1.2-6.1-4-5.8-8.1 0.4-4.4 2.9-7 7.3-7.3 5-0.2 10.1-0.1 15.2-0.1h138.5c1.3 0 2.6 0 3.9 0 5.2 0.2 8.4 3.1 8.5 7.7 0.1 4.8-3.2 8-8.5 8-17.8 0.1-35.5 0-53.2 0z"/>
		<path id="Layer" fill-rule="evenodd" class="s0" d="m210.1 496.2c4.8 0 9.6 0 14.3 0 6 0.1 8.9 2.8 9 8.6q0.1 15 0 30c-0.1 5.6-3 8.6-8.5 8.6q-15.3 0.2-30.6 0c-5.2 0-8.1-3-8.1-8.3q-0.2-15.3 0-30.6c0-5.3 2.9-8.2 8.2-8.3 5.3-0.1 10.5 0 15.7 0zm7.3 16h-15.3v15.2h15.3z"/>
		<path id="Layer" class="s0" d="m327.9 232.4c0 6.1 0.1 12.2 0 18.2 0 5.8-3 9.2-7.9 9.1-4.8-0.1-7.7-3.3-7.7-8.8q-0.1-18.7 0-37.5c0-5.5 2.9-8.7 7.7-8.8 4.9-0.1 7.9 3.3 7.9 9.1 0.1 6.2 0 12.5 0 18.7z"/>
		<path id="Layer" class="s0" d="m154.6 357.9c0-3.7-0.1-7.5 0-11.3 0.1-5 3.4-8.1 8-8 4.4 0.1 7.6 3.2 7.7 7.9q0.2 11.8 0 23.6c-0.1 4.7-3.4 7.8-7.8 7.8-4.4 0.1-7.6-3-7.9-7.6q0-0.5 0-1z"/>
		<path id="Layer" class="s0" d="m312.2 357.9c0-3.7-0.1-7.5 0-11.3 0.2-4.9 3.5-8.1 8.1-8 4.4 0.1 7.5 3.2 7.6 7.9q0.2 11.8 0 23.7c-0.1 4.6-3.4 7.7-7.8 7.7-4.4 0.1-7.6-3-7.9-7.7q0-0.4 0-0.9z"/>
		<path id="Layer" class="s0" d="m264.7 511.9c-2.7 0-5.3 0.2-7.9 0-4.6-0.2-7.7-3.5-7.6-7.9 0.1-4.3 3-7.5 7.4-7.7q8.3-0.3 16.7 0c4.4 0.2 7.3 3.5 7.3 7.7 0.1 4.4-3 7.7-7.6 7.9-2.8 0.2-5.6 0-8.3 0z"/>
		<path id="Layer" class="s0" d="m265.2 527.8c2.8 0 5.6-0.2 8.4 0q1.5 0.1 2.8 0.8 1.4 0.6 2.4 1.8 1 1.1 1.4 2.5 0.5 1.4 0.4 2.9c-0.2 4.4-2.6 7.3-6.9 7.5q-2.2 0.2-4.4 0.2-2.3 0.1-4.5 0.1-2.2 0-4.4-0.1-2.2 0-4.4-0.2c-4-0.2-6.8-3.6-6.8-7.7q-0.1-1.5 0.4-2.9 0.6-1.4 1.6-2.5 1-1.1 2.3-1.7 1.4-0.6 2.9-0.7c2.9-0.2 5.9 0 8.8 0z"/>
		<path id="Layer" class="s0" d="m154.6 216q0-0.6 0-1.1 0-0.6 0-1.1 0-0.6 0-1.1 0-0.6 0-1.1c0.2-2 1.1-3.7 2.6-5 1.4-1.3 3.3-2 5.2-2 2 0 3.8 0.7 5.3 2 1.4 1.3 2.3 3.1 2.5 5q0.1 1.1 0.1 2.2 0.1 1.1 0.1 2.3 0 1.1 0 2.2-0.1 1.1-0.1 2.2c-0.3 4.6-3.5 7.7-7.9 7.7-4.4 0-7.5-3.1-7.8-7.8-0.1-1.4 0-2.9 0-4.4z"/>
		<path id="Layer" class="s0" d="m320 307.1c3.2-0.1 6.1 1.9 7.3 4.8 1.3 2.9 0.6 6.3-1.7 8.6-2.2 2.2-5.6 2.9-8.6 1.7-2.9-1.3-4.8-4.2-4.8-7.4q0-1.5 0.6-2.9 0.6-1.5 1.7-2.6 1.1-1.1 2.5-1.7 1.5-0.5 3-0.5z"/>
		<path id="Layer" class="s0" d="m367.3 354.4c3.2-0.1 6.1 1.8 7.3 4.8 1.3 2.9 0.6 6.3-1.7 8.6-2.2 2.2-5.6 2.9-8.6 1.6-2.9-1.2-4.8-4.1-4.8-7.3q0-1.5 0.6-3 0.6-1.4 1.7-2.5 1.1-1.1 2.5-1.7 1.5-0.6 3-0.5z"/>
		<path id="Layer" class="s0" d="m509.2 354.4c3.2-0.1 6.1 1.8 7.3 4.8 1.2 2.9 0.6 6.3-1.7 8.6-2.2 2.2-5.6 2.9-8.6 1.7-2.9-1.3-4.8-4.2-4.8-7.3q0-1.6 0.6-3 0.6-1.5 1.6-2.6 1.1-1.1 2.6-1.7 1.4-0.6 3-0.5z"/>
		<path id="Layer" class="s0" d="m375.2 220.5c-0.1 3.2-2.1 6-5 7.2-3 1.1-6.4 0.3-8.6-2-2.1-2.3-2.7-5.8-1.4-8.7 1.4-2.8 4.3-4.7 7.5-4.5q1.6 0 3 0.7 1.4 0.6 2.5 1.7 1 1.2 1.6 2.6 0.5 1.5 0.4 3z"/>
		<path id="Layer" class="s0" d="m509.3 212.5c3.2 0 6.1 2 7.3 4.9 1.2 3 0.4 6.4-1.9 8.6-2.3 2.2-5.7 2.8-8.6 1.5-2.9-1.3-4.8-4.2-4.7-7.4q0-1.5 0.7-3 0.6-1.4 1.7-2.5 1.1-1 2.6-1.6 1.4-0.6 2.9-0.5z"/>
		<path id="Layer" class="s0" d="m162.4 259.7c-3.2 0-6-1.9-7.2-4.9-1.2-2.9-0.5-6.3 1.8-8.6 2.2-2.2 5.6-2.8 8.6-1.5 2.9 1.2 4.8 4.1 4.7 7.3q0 1.6-0.6 3-0.6 1.4-1.7 2.5-1.1 1.1-2.6 1.7-1.4 0.6-3 0.5z"/>
		<path id="Layer" class="s0" d="m162.4 291.2c-3.2 0-6-1.9-7.2-4.9-1.2-2.9-0.5-6.3 1.8-8.5 2.2-2.3 5.6-2.9 8.6-1.6 2.9 1.2 4.8 4.2 4.7 7.3q0 1.6-0.6 3-0.6 1.5-1.7 2.6-1.1 1-2.6 1.6-1.4 0.6-3 0.5z"/>
		<path id="Layer" class="s0" d="m320.3 275.5c3.2 0.1 6 2.1 7.1 5.1 1.2 3 0.4 6.3-1.9 8.5-2.4 2.2-5.8 2.8-8.7 1.4-2.9-1.3-4.7-4.2-4.6-7.4q0.1-1.6 0.7-3 0.6-1.4 1.8-2.5 1.1-1 2.6-1.6 1.4-0.5 3-0.5z"/>
		<path id="Layer" class="s0" d="m170.3 315.1c-0.1 3.2-2.1 6-5 7.2-3 1.1-6.4 0.3-8.6-2-2.2-2.3-2.7-5.7-1.4-8.6 1.3-2.9 4.3-4.8 7.5-4.6q1.5 0 2.9 0.6 1.5 0.7 2.5 1.8 1.1 1.1 1.6 2.6 0.6 1.5 0.5 3z"/>
		<path id="Layer" class="s0" d="m178.4 590.8c3.2 0.1 6 2.1 7.2 5 1.1 3 0.3 6.4-2 8.6-2.3 2.2-5.7 2.7-8.6 1.4-2.9-1.3-4.7-4.3-4.6-7.5q0-1.5 0.6-2.9 0.7-1.4 1.8-2.5 1.1-1.1 2.6-1.6 1.4-0.6 3-0.5z"/>
		<path id="Layer" class="s0" d="m209.7 606.5c-3.2 0-6-1.9-7.2-4.9-1.2-2.9-0.5-6.3 1.8-8.6 2.2-2.2 5.6-2.8 8.6-1.5 2.9 1.2 4.8 4.1 4.7 7.3q0 1.6-0.6 3-0.6 1.4-1.7 2.5-1.1 1.1-2.6 1.7-1.4 0.5-3 0.5z"/>
		<path id="Layer" class="s0" d="m241.4 606.5c-3.2 0.1-6.1-1.8-7.3-4.7-1.3-2.9-0.7-6.3 1.6-8.6 2.2-2.3 5.6-3 8.5-1.8 3 1.2 4.9 4 4.9 7.2q0.1 1.6-0.5 3-0.6 1.5-1.7 2.6-1.1 1.1-2.5 1.7-1.4 0.6-3 0.6z"/>
		<path id="Layer" class="s0" d="m280.6 598.7c0 3.2-1.9 6.1-4.9 7.2-2.9 1.2-6.3 0.5-8.5-1.8-2.3-2.3-2.9-5.7-1.6-8.6 1.3-2.9 4.2-4.8 7.4-4.7q1.5 0 3 0.6 1.4 0.6 2.5 1.7 1.1 1.2 1.6 2.6 0.6 1.5 0.5 3z"/>
		<path id="Layer" fill-rule="evenodd" class="s0" d="m438.6 267.7c5.1 0 10.2-0.1 15.3 0 5 0.1 7.9 3 8 8q0.2 15.5 0 31c-0.1 5.2-3.1 8.1-8.4 8.1q-15.3 0.2-30.5 0c-5.3 0-8.2-3-8.3-8.3q-0.1-15.2 0-30.5c0.1-5.5 3-8.3 8.7-8.4 5.1 0 10.1 0.1 15.2 0.1zm-8 31.2h15.3v-15.2h-15.3z"/>
		<path id="Layer" class="s0" d="m470.6 165.2h30.8l0.2 15.7-30.8-0.1"/>
		<path id="Layer" class="s0" d="m138.7 434.3v29.6l-15.6-0.2v-29.5"/>
		<path id="Layer" class="s0" d="m595.9 408.1v32.6l-15.7 0.9v-33.4l15.7-0.1z"/>
		<path id="Layer" class="s0" d="m296.4 215.1v5.5h-42.1v-16h34.1c10.7 0 8 10.5 8 10.5z"/>
		<path id="Layer" class="s0" d="m445.5 575l-0.8-15.7h34.3l0.2 15.7h-33.7z"/>
		<path id="Layer" class="s0" d="m248 574.9l0.1-15.7 33.4 0.1 0.1 15.7-33.6-0.1z"/>
	</g>
</svg>