<svg id="Layer_1" data-name="Layer 1" xmlns="http://www.w3.org/2000/svg" viewBox="0 0 1024 1024"><defs><style>.cls-1{fill:#325f64;}.cls-1,.cls-2{stroke:#325f64;stroke-miterlimit:10;}.cls-2{fill:none;}</style></defs><path class="cls-1" d="M844.94,227c-.38-34.27-34.09-34.33-34.33-34.33H213.69C178.06,193.93,179.37,227,179.37,227s-.05,387.38,0,421.35,34.32,34.32,34.32,34.32,560.63,2.71,596.92,0,34.33-34.32,34.33-34.32S845.32,261.36,844.94,227Zm-20,421.35s-1,13.6-14.33,14.32-596.92,0-596.92,0-14.27-.36-14.32-14.32,0-421.35,0-421.35.69-14,14.32-14.33H810.61s13.95.94,14.33,14.33S824.94,648.33,824.94,648.33Z"/><path class="cls-2" d="M213.69,212.64H810.61s13.95,1,14.33,14.33,0,421.35,0,421.35-1,13.61-14.33,14.32-596.92,0-596.92,0-14.27-.35-14.32-14.32,0-421.35,0-421.35S200.06,212.93,213.69,212.64Z"/><path class="cls-2" d="M213.69,192.64H810.61s33.95,0,34.33,34.33,0,421.35,0,421.35,2,31.61-34.33,34.32-596.92,0-596.92,0-34.27-.35-34.32-34.32,0-421.35,0-421.35S178.06,193.93,213.69,192.64Z"/><rect class="cls-2" x="234.32" y="266.36" width="556" height="294"/><path class="cls-2" d="M824.94,227c-.38-13.39-14.33-14.33-14.33-14.33H213.69c-13.63.28-14.32,14.33-14.32,14.33s-.05,407.38,0,421.35,14.32,14.32,14.32,14.32,583.63.71,596.92,0,14.33-14.32,14.33-14.32S825.32,240.36,824.94,227ZM810.32,580.36h-596v-334h596Z"/><path class="cls-1" d="M214.32,246.36v334h596v-334Zm576,314h-556v-294h556Z"/><rect class="cls-2" x="234.32" y="266.36" width="556" height="294"/><rect class="cls-2" x="234.32" y="266.36" width="556" height="294"/><path class="cls-1" d="M619.65,785.36h-215a10,10,0,0,1-8.19-15.74l3.53-5c19.2-27.42,27.74-57.93,24.71-88.23a10,10,0,0,1,9.95-11h155a10,10,0,0,1,10,11c-3,30.3,5.52,60.81,24.72,88.23l3.53,5a10,10,0,0,1-8.2,15.74Zm-174.38-100c.59,27.49-6.9,54.77-22,80H601c-15.06-25.23-22.55-52.51-22-80"/><path class="cls-1" d="M645.65,831.36h-267a32.5,32.5,0,0,1,0-65h267a32.5,32.5,0,0,1,0,65Zm-267-45a12.5,12.5,0,0,0,0,25h267a12.5,12.5,0,0,0,0-25"/><path class="cls-1" d="M485.9,379.35H452.31V344.83h34.28V292.52H521.3v51.31h34.75V292.76h35.09V344h34.63v35.11H592.33v70.11h33.59v34.72H591.64v52.32H556.93V484.89H522.18V536H487.09V484.78H452.46V449.67H485.9Zm70.18,69.56V380H522.34v68.9Z"/><path class="cls-1" d="M382.38,467.26h33c4.11,26.79-18.74,58-48.5,66.81C322,547.28,277.23,514.2,277,467.48q-.33-53.5,0-107c.26-38.26,31.5-68.55,70.19-68.47,38,.08,69,30.4,69.5,68.1.09,5.82,0,11.64,0,18.35h-34.9c0-5,.17-10.34,0-15.63-.75-20.44-16-36-35.1-35.87S312.12,342.44,311.9,363c-.35,33.11-.16,66.24-.08,99.36.05,21.82,12.19,36.74,31.6,39.2,17.42,2.2,32.65-9.92,38-30.26C381.7,470.28,381.92,469.21,382.38,467.26Z"/><path class="cls-1" d="M703.34,308.55c-1.76,1.81-3.28,3.42-4.85,5q-15.12,15.13-30.23,30.28c-2.07,2.07-4.42,3.11-7.29,2.35a6.79,6.79,0,0,1-3.37-10.93c.34-.4.73-.77,1.1-1.14q19.56-19.56,39.11-39.11,5.52-5.52,11,0,19.62,19.61,39.22,39.22c3.94,4,2.5,10.14-2.72,11.59a6.73,6.73,0,0,1-6.92-2q-15.17-15.19-30.35-30.38C706.54,311.86,705.05,310.3,703.34,308.55Z"/><path class="cls-1" d="M703.34,350.55c-1.76,1.81-3.28,3.42-4.85,5q-15.12,15.13-30.23,30.28c-2.07,2.07-4.42,3.11-7.29,2.35a6.79,6.79,0,0,1-3.37-10.93c.34-.4.73-.77,1.1-1.14q19.56-19.56,39.11-39.11,5.52-5.52,11,0,19.62,19.61,39.22,39.22c3.94,4,2.5,10.14-2.72,11.59a6.73,6.73,0,0,1-6.92-2q-15.17-15.19-30.35-30.38C706.54,353.86,705.05,352.3,703.34,350.55Z"/></svg>