<?xml version="1.0" encoding="UTF-8"?>
<svg xmlns="http://www.w3.org/2000/svg" xmlns:xlink="http://www.w3.org/1999/xlink" width="32px" height="32px" viewBox="0 0 32 32" version="1.1">
<g id="surface1">
<path style=" stroke:none;fill-rule:nonzero;fill:rgb(0%,0%,0%);fill-opacity:1;" d="M 16 0 C 7.164062 0 0 7.164062 0 16 C 0 24.835938 7.164062 32 16 32 C 24.835938 32 32 24.835938 32 16 C 32 7.164062 24.835938 0 16 0 Z M 24.535156 20.535156 C 24.144531 20.925781 23.511719 20.925781 23.121094 20.535156 L 16 13.414062 L 8.878906 20.535156 C 8.488281 20.925781 7.855469 20.925781 7.464844 20.535156 C 7.074219 20.144531 7.074219 19.511719 7.464844 19.121094 L 15.121094 11.464844 C 15.363281 11.222656 15.691406 11.148438 16 11.203125 C 16.3125 11.148438 16.640625 11.222656 16.878906 11.464844 L 24.535156 19.121094 C 24.925781 19.511719 24.925781 20.144531 24.535156 20.535156 Z M 24.535156 20.535156 "/>
</g>
</svg>
