<?xml version="1.0" standalone="no"?>
<!DOCTYPE svg PUBLIC "-//W3C//DTD SVG 20010904//EN"
 "http://www.w3.org/TR/2001/REC-SVG-20010904/DTD/svg10.dtd">
<svg version="1.0" xmlns="http://www.w3.org/2000/svg"
 width="500.000000pt" height="500.000000pt" viewBox="0 0 500.000000 500.000000"
 preserveAspectRatio="xMidYMid meet">

<g transform="translate(0.000000,500.000000) scale(0.100000,-0.100000)"
fill="#000000" stroke="none">
<path d="M2325 4988 c-224 -19 -565 -98 -750 -175 -551 -228 -975 -607 -1264
-1128 -169 -304 -265 -636 -301 -1042 -14 -157 8 -433 51 -642 135 -651 519
-1214 1077 -1583 314 -207 698 -349 1042 -387 343 -37 304 -37 630 0 270 32
574 127 830 261 725 379 1215 1080 1327 1897 19 141 21 467 4 601 -74 575
-317 1075 -716 1474 -323 323 -713 541 -1180 660 -96 24 -229 45 -385 61 -156
16 -210 17 -365 3z m491 -103 c882 -124 1619 -716 1929 -1549 98 -265 145
-559 140 -883 -3 -214 -17 -317 -73 -543 -47 -184 -95 -315 -169 -464 -102
-203 -205 -357 -344 -516 -377 -428 -860 -696 -1424 -791 -111 -19 -168 -22
-390 -22 -234 0 -275 3 -405 26 -774 137 -1418 625 -1756 1332 -77 161 -112
259 -158 445 -49 200 -66 309 -73 490 -16 420 77 844 263 1200 190 362 474
678 804 895 357 236 725 360 1180 399 82 7 373 -4 476 -19z"/>
<path d="M2590 4716 c0 -8 4 -17 9 -20 5 -3 21 -41 37 -83 32 -91 32 -92 44
-73 5 9 5 19 -2 27 -5 7 -22 45 -37 84 -24 67 -51 101 -51 65z"/>
<path d="M2261 4673 c5 -27 11 -74 14 -105 4 -38 11 -58 19 -58 10 0 11 11 5
48 -5 26 -11 73 -14 105 -4 37 -11 57 -19 57 -10 0 -11 -11 -5 -47z"/>
<path d="M2763 4697 c-7 -14 -8 -30 -2 -38 10 -17 0 -129 -14 -146 -7 -10 -4
-13 10 -13 18 0 21 9 27 93 4 50 9 100 12 110 8 26 -21 21 -33 -6z"/>
<path d="M2100 4684 c0 -8 5 -57 11 -109 8 -62 16 -92 24 -89 8 4 8 26 -1 92
-7 48 -13 95 -13 105 -1 21 -21 23 -21 1z"/>
<path d="M1859 4648 c-7 -23 -6 -45 3 -55 15 -19 57 -141 50 -147 -3 -4 3 -6
12 -6 14 0 16 5 11 18 -5 9 -20 56 -34 104 -14 49 -29 88 -33 88 -5 0 -8 -1
-9 -2z"/>
<path d="M3114 4620 c4 -19 10 -72 13 -118 5 -66 9 -80 18 -70 16 17 -4 191
-24 210 -11 11 -13 8 -7 -22z"/>
<path d="M1706 4592 c-8 -14 58 -201 72 -202 13 0 7 44 -8 65 -4 6 -17 40 -29
78 -23 68 -26 73 -35 59z"/>
<path d="M3276 4575 c-8 -9 -13 -21 -11 -28 3 -7 -8 -47 -24 -89 -18 -49 -25
-78 -17 -78 13 0 87 198 76 205 -5 3 -15 -2 -24 -10z"/>
<path d="M1560 4535 c0 -2 9 -19 20 -37 11 -18 20 -41 20 -50 0 -10 4 -18 9
-18 5 0 17 -20 27 -44 10 -24 23 -42 29 -40 14 6 -76 192 -92 193 -7 1 -13 -1
-13 -4z"/>
<path d="M2380 4525 c0 -8 5 -15 10 -15 6 0 10 7 10 15 0 8 -4 15 -10 15 -5 0
-10 -7 -10 -15z"/>
<path d="M2850 4490 c0 -5 7 -10 15 -10 8 0 15 5 15 10 0 6 -7 10 -15 10 -8 0
-15 -4 -15 -10z"/>
<path d="M3479 4498 c-1 -2 -2 -21 -4 -43 -5 -65 -15 -149 -21 -166 -2 -10 2
-19 11 -23 9 -3 14 -2 11 2 -2 4 2 50 10 102 17 113 17 130 4 130 -5 0 -10 -1
-11 -2z"/>
<path d="M1420 4465 c0 -15 95 -195 103 -195 5 0 7 6 4 13 -3 6 -13 32 -23 57
-9 25 -26 56 -36 69 -10 13 -18 32 -18 42 0 11 -7 19 -15 19 -8 0 -15 -2 -15
-5z"/>
<path d="M1310 4396 c0 -2 7 -7 16 -10 8 -3 12 -2 9 4 -6 10 -25 14 -25 6z"/>
<path d="M3615 4329 c-27 -39 -55 -78 -63 -86 -13 -13 -13 -16 -1 -23 10 -7
16 -3 21 10 4 10 30 50 57 88 28 39 51 73 51 76 0 20 -22 -3 -65 -65z"/>
<path d="M2314 4369 c-780 -70 -1446 -642 -1639 -1409 -112 -444 -55 -911 162
-1330 84 -163 172 -279 333 -440 173 -173 282 -253 480 -353 530 -267 1107
-274 1637 -22 633 302 1027 893 1078 1615 22 316 -91 746 -272 1040 -155 251
-328 432 -563 589 -361 242 -781 349 -1216 310z m508 -68 c392 -78 702 -244
969 -518 280 -287 442 -611 504 -1009 22 -136 16 -447 -10 -594 -49 -272 -152
-513 -322 -753 -79 -111 -297 -327 -413 -409 -521 -368 -1194 -441 -1779 -192
-496 211 -886 655 -1035 1177 -54 187 -61 245 -61 507 0 219 3 257 24 355 74
348 233 651 473 901 274 285 601 462 986 533 149 28 164 29 372 26 138 -2 212
-8 292 -24z"/>
<path d="M1950 3864 c-6 -14 -8 -30 -4 -35 6 -11 1714 -13 1714 -1 -1 4 -17
19 -37 35 l-36 27 -814 0 -813 0 -10 -26z"/>
<path d="M1925 3748 c-7 -24 -65 -303 -65 -316 0 -9 121 -12 570 -12 536 0
570 -1 569 -17 0 -10 -6 -52 -13 -93 l-12 -75 -246 -3 -246 -2 -11 -52 c-6
-28 -18 -87 -26 -132 -8 -44 -17 -96 -21 -114 l-7 -33 153 3 153 3 23 122 c12
67 25 126 29 132 3 7 43 11 97 11 l91 0 -7 -32 c-18 -89 -91 -486 -121 -658
-19 -107 -50 -285 -70 -395 -20 -110 -56 -314 -81 -454 -24 -140 -49 -274 -54
-298 -12 -53 -8 -63 29 -63 30 0 45 11 199 139 96 79 101 85 111 135 14 67 42
220 80 436 30 169 179 1000 202 1128 l11 62 439 0 439 0 -13 33 -13 32 -414 2
c-232 1 -416 5 -417 10 -2 5 3 45 10 89 l13 79 286 3 c322 3 293 -6 304 88 8
62 5 68 -92 179 l-65 75 -905 0 c-715 0 -905 -3 -909 -12z"/>
<path d="M1275 2841 c-117 -21 -162 -97 -116 -198 11 -23 85 -141 165 -262 80
-122 146 -226 146 -231 0 -6 -131 -10 -361 -10 -338 0 -360 -1 -357 -17 3 -17
30 -18 380 -21 l378 -2 50 -75 c28 -41 53 -82 56 -90 5 -13 -44 -15 -401 -15
-382 0 -406 -1 -403 -17 3 -17 32 -18 424 -21 l420 -2 17 -29 c9 -16 17 -32
17 -35 0 -3 -186 -6 -413 -6 -228 0 -416 -3 -420 -6 -3 -3 -3 -12 0 -20 4 -12
70 -14 399 -14 273 0 394 -3 394 -11 0 -6 -26 -46 -57 -90 l-58 -79 -283 0
c-265 0 -283 -1 -280 -17 3 -17 25 -18 261 -21 160 -1 257 -6 257 -12 0 -6
-50 -78 -110 -161 -100 -137 -117 -169 -90 -169 5 0 69 82 142 181 73 100 175
238 226 308 50 69 90 132 87 138 -2 7 -110 173 -240 369 -130 196 -244 373
-255 393 -46 90 -33 148 38 178 33 14 113 14 702 7 366 -5 708 -9 760 -9 l95
0 3 26 3 27 -538 6 c-296 3 -641 8 -768 10 -126 2 -248 1 -270 -3z"/>
<path d="M1373 2708 c-22 -11 -28 -24 -25 -61 1 -10 110 -180 243 -379 132
-198 243 -366 246 -374 3 -7 -56 -96 -130 -196 -296 -404 -377 -519 -371 -529
13 -21 209 -161 265 -190 l59 -29 602 2 602 3 42 225 c23 124 40 227 38 229
-2 2 -55 -40 -118 -93 l-114 -96 -494 2 c-385 2 -493 6 -493 15 0 7 86 132
190 278 105 146 196 275 204 288 17 28 24 16 -245 421 -101 153 -182 281 -179
284 7 7 1013 2 1031 -5 7 -2 18 -36 25 -74 7 -38 14 -67 17 -64 5 5 62 328 58
332 -1 1 -181 4 -401 8 -220 3 -542 7 -715 10 -219 3 -322 1 -337 -7z"/>
<path d="M3190 2476 c-5 -12 -16 -66 -25 -121 -8 -55 -18 -110 -22 -123 -5
-22 -4 -23 58 -20 l64 3 3 35 c4 44 27 70 61 70 41 0 50 12 53 70 3 51 5 55
30 58 30 4 35 -8 40 -83 2 -28 8 -40 18 -40 10 0 16 12 18 40 5 75 10 87 40
83 25 -3 27 -6 30 -60 3 -50 6 -58 22 -58 17 0 20 7 20 48 0 58 10 75 41 70
22 -3 25 -9 29 -63 4 -44 9 -60 20 -60 10 0 16 12 18 40 5 75 10 87 40 83 25
-3 27 -7 32 -63 4 -46 9 -61 22 -63 14 -3 17 7 20 60 3 63 3 63 33 63 29 0 30
-1 35 -60 4 -44 9 -60 20 -60 10 0 16 12 18 40 5 75 10 87 40 83 25 -3 27 -7
32 -63 4 -44 9 -60 20 -60 11 0 16 14 18 50 4 57 16 77 46 73 18 -3 22 -12 26
-63 l5 -60 37 -3 c43 -4 59 -20 67 -69 3 -20 11 -38 17 -40 14 -5 22 43 31
170 5 79 3 101 -8 108 -8 5 -238 8 -538 7 -519 -1 -523 -2 -531 -22z"/>
<path d="M2335 2428 c-2 -13 -43 -237 -90 -498 -46 -261 -92 -512 -101 -557
-9 -45 -13 -86 -10 -92 10 -15 282 -15 292 0 4 6 15 59 26 118 23 132 52 289
72 401 9 47 27 146 41 220 13 74 36 198 50 274 14 77 25 144 25 148 0 4 -67 8
-150 8 -147 0 -150 0 -155 -22z"/>
<path d="M3486 2214 c-20 -20 -20 -43 0 -72 17 -25 56 -29 74 -7 10 12 39 15
144 15 l131 0 80 -80 80 -81 100 3 c86 3 100 5 103 21 3 15 -6 17 -90 17 l-94
0 -85 85 -86 85 -129 0 c-98 1 -134 4 -148 15 -26 19 -61 19 -80 -1z"/>
<path d="M3127 2134 c-4 -4 -7 -14 -7 -21 0 -11 16 -13 73 -11 56 2 72 6 72
18 0 12 -15 16 -65 18 -36 2 -69 0 -73 -4z"/>
<path d="M780 2010 c0 -20 7 -20 375 -20 373 0 376 0 365 20 -10 19 -21 20
-375 20 -358 0 -365 0 -365 -20z"/>
<path d="M3107 2024 c-4 -4 -7 -14 -7 -21 0 -11 18 -13 83 -11 65 2 82 6 82
18 0 12 -16 16 -75 18 -42 1 -79 0 -83 -4z"/>
<path d="M3677 2012 c-19 -21 -21 -45 -7 -73 13 -23 58 -25 86 -4 10 8 36 15
58 15 35 0 46 -8 131 -91 88 -86 95 -90 131 -87 27 2 40 8 42 21 3 14 -4 17
-34 17 -33 0 -46 9 -130 91 -87 86 -95 91 -137 93 -27 1 -53 8 -64 19 -25 22
-56 22 -76 -1z"/>
<path d="M3086 1904 c-3 -9 -6 -18 -6 -20 0 -2 112 -4 248 -4 247 0 249 0 270
-23 12 -13 22 -35 22 -49 0 -50 61 -76 93 -40 34 38 6 92 -48 92 -12 0 -34 14
-50 30 l-29 30 -247 0 c-216 0 -248 -2 -253 -16z"/>
<path d="M3067 1803 c-4 -3 -7 -12 -7 -20 0 -10 35 -13 173 -13 197 0 210 -4
221 -70 8 -52 42 -72 81 -46 45 30 29 96 -23 96 -13 0 -40 14 -59 30 l-34 30
-173 0 c-95 0 -176 -3 -179 -7z"/>
<path d="M910 1680 c10 -19 21 -20 318 -20 302 0 332 3 332 32 0 4 -149 8
-330 8 -328 0 -331 0 -320 -20z"/>
<path d="M3046 1685 c-3 -9 -6 -19 -6 -21 0 -3 51 -3 113 -2 92 2 112 6 112
18 0 23 -210 28 -219 5z"/>
<path d="M3681 1625 l-38 -35 -309 -2 c-285 -3 -309 -4 -312 -20 -3 -17 17
-18 314 -18 l317 0 38 34 c85 78 270 56 281 -33 l3 -26 18 33 18 34 -38 33
-38 34 -107 1 -108 0 -39 -35z"/>
<path d="M2985 1355 c-10 -63 -16 -117 -13 -120 4 -4 355 -9 423 -5 5 0 4 5
-3 12 -7 7 -12 35 -12 64 l0 52 -40 7 c-51 9 -70 28 -70 71 l0 34 -133 0 -133
0 -19 -115z"/>
<path d="M3450 1307 c0 -29 -5 -58 -11 -64 -8 -8 -2 -13 21 -18 33 -7 62 7 41
19 -6 4 -11 32 -11 62 0 47 -2 54 -20 54 -17 0 -20 -7 -20 -53z"/>
<path d="M3560 1307 c0 -29 -5 -58 -12 -65 -17 -17 -8 -21 37 -13 25 4 35 9
28 14 -8 5 -13 30 -13 63 0 47 -2 54 -20 54 -17 0 -20 -7 -20 -53z"/>
<path d="M3670 1308 c0 -34 -6 -58 -17 -70 -15 -17 -14 -18 18 -18 39 0 67 14
50 24 -6 4 -11 32 -11 62 0 47 -2 54 -20 54 -17 0 -20 -7 -20 -52z"/>
<path d="M3780 1323 c0 -35 0 -36 20 -18 11 10 20 26 20 37 0 11 -7 18 -20 18
-16 0 -20 -7 -20 -37z"/>
<path d="M2977 1179 c-43 -25 -61 -133 -32 -189 35 -68 125 -68 160 0 30 57
11 166 -33 189 -26 14 -71 14 -95 0z m73 -48 c5 -11 10 -41 10 -66 0 -55 -14
-85 -39 -85 -24 0 -31 19 -31 81 0 56 13 89 35 89 8 0 19 -9 25 -19z"/>
<path d="M3208 1166 c-48 -27 -53 -61 -8 -51 l31 7 -3 -69 c-3 -66 -4 -68 -30
-71 -20 -2 -28 -9 -28 -23 0 -18 6 -20 87 -17 73 3 88 6 91 20 2 12 -5 17 -25
20 l-28 3 -3 103 c-3 98 -4 102 -25 101 -12 -1 -39 -11 -59 -23z"/>
<path d="M3427 1170 c-33 -26 -50 -80 -42 -130 8 -46 17 -55 44 -41 16 9 19
22 19 72 0 65 9 83 38 77 13 -2 20 -13 22 -33 5 -53 9 -57 37 -39 33 22 32 49
-4 85 -35 35 -77 38 -114 9z"/>
<path d="M2056 888 c-15 -47 -14 -88 2 -97 19 -10 176 -38 236 -43 l40 -3 13
60 c21 104 34 95 -137 95 -112 0 -152 -3 -154 -12z"/>
<path d="M2448 869 c-47 -24 -53 -59 -10 -56 25 2 27 -1 30 -41 3 -40 5 -43
30 -40 26 3 27 5 30 81 3 75 2 77 -20 77 -13 -1 -40 -10 -60 -21z"/>
<path d="M2667 879 c-25 -15 -47 -63 -47 -104 0 -32 2 -35 30 -35 28 0 30 2
30 38 0 86 62 97 68 13 3 -41 4 -43 30 -36 36 9 35 8 28 51 -13 68 -83 106
-139 73z"/>
<path d="M2897 866 c-41 -23 -46 -51 -9 -51 12 0 26 -6 31 -13 5 -8 19 -12 32
-10 21 3 24 9 27 51 3 44 1 47 -20 46 -13 -1 -40 -11 -61 -23z"/>
<path d="M3109 869 c-11 -11 -18 -23 -15 -26 7 -7 106 29 106 39 0 18 -70 8
-91 -13z"/>
<path d="M1212 4331 c-11 -6 0 -29 45 -100 33 -50 62 -88 66 -85 7 8 -30 77
-69 129 -12 17 -24 38 -25 47 -3 12 -8 15 -17 9z"/>
<path d="M3763 4308 c-6 -13 -34 -53 -61 -90 -29 -39 -47 -70 -41 -74 6 -3 11
-4 12 -3 9 18 29 47 71 104 30 42 45 70 39 76 -6 6 -14 1 -20 -13z"/>
<path d="M1350 4300 c0 -5 5 -10 11 -10 5 0 7 5 4 10 -3 6 -8 10 -11 10 -2 0
-4 -4 -4 -10z"/>
<path d="M1084 4237 c-4 -10 16 -38 55 -78 33 -34 63 -70 67 -81 4 -14 9 -16
19 -8 10 8 5 18 -22 48 -20 20 -53 59 -74 85 -29 36 -40 45 -45 34z"/>
<path d="M3877 4236 c-3 -8 -31 -48 -61 -90 -31 -41 -52 -77 -48 -80 13 -8
135 165 124 176 -6 6 -12 4 -15 -6z"/>
<path d="M3990 4144 c0 -6 -32 -45 -70 -86 -39 -42 -66 -79 -62 -82 5 -3 25
11 44 32 104 114 111 123 100 134 -7 7 -12 8 -12 2z"/>
<path d="M940 4110 c0 -5 3 -10 8 -11 24 -2 46 -10 117 -43 43 -20 79 -36 80
-36 2 0 1 9 -2 20 -3 11 -9 18 -13 15 -4 -3 -42 11 -83 30 -77 36 -107 43
-107 25z"/>
<path d="M844 3994 c3 -9 6 -18 6 -20 0 -2 5 -4 11 -4 7 0 40 -25 75 -55 34
-31 65 -52 67 -48 5 8 -146 143 -159 143 -3 0 -3 -7 0 -16z"/>
<path d="M4180 3953 c0 -6 -36 -39 -80 -74 -55 -43 -77 -66 -69 -74 6 -6 12
-6 17 0 6 8 68 62 144 124 4 4 3 13 -2 21 -6 8 -10 10 -10 3z"/>
<path d="M737 3884 c-3 -3 28 -35 69 -71 41 -35 74 -69 74 -75 0 -7 5 -6 15 2
12 10 11 15 -11 33 -15 12 -45 38 -68 57 -22 19 -48 40 -57 47 -9 7 -18 10
-22 7z"/>
<path d="M3968 3883 c7 -3 16 -2 19 1 4 3 -2 6 -13 5 -11 0 -14 -3 -6 -6z"/>
<path d="M4240 3862 c0 -26 -29 -50 -65 -54 l-30 -4 28 -8 c39 -12 77 15 77
54 0 17 -2 30 -5 30 -3 0 -5 -8 -5 -18z"/>
<path d="M4204 3716 c-23 -23 -34 -43 -34 -62 l1 -29 13 30 c18 41 46 64 98
80 l43 14 -43 0 c-37 1 -49 -4 -78 -33z"/>
<path d="M606 3701 c-3 -5 1 -11 9 -14 9 -4 12 -1 8 9 -6 16 -10 17 -17 5z"/>
<path d="M4391 3608 c-1 -21 -76 -78 -103 -78 -10 0 -18 -4 -18 -10 0 -28 89
6 114 44 9 15 15 35 13 44 -4 16 -5 15 -6 0z"/>
<path d="M525 3561 c-3 -5 30 -12 72 -16 43 -3 88 -8 100 -11 15 -3 21 0 18 8
-3 7 -18 13 -33 13 -15 0 -55 4 -89 8 -34 3 -65 3 -68 -2z"/>
<path d="M490 3490 c0 -5 5 -10 11 -10 5 0 7 5 4 10 -3 6 -8 10 -11 10 -2 0
-4 -4 -4 -10z"/>
<path d="M4405 3460 c-44 -21 -88 -39 -97 -39 -20 -1 -22 -9 -9 -29 6 -10 10
-10 20 2 6 8 32 20 56 27 25 7 45 16 45 20 0 4 18 14 41 23 22 9 37 21 34 26
-3 6 -7 10 -8 9 -1 0 -38 -18 -82 -39z"/>
<path d="M705 3481 c-6 -11 9 -23 19 -14 9 9 7 23 -3 23 -6 0 -12 -4 -16 -9z"/>
<path d="M4509 3384 c-9 -11 -23 -14 -46 -11 -29 5 -33 3 -33 -17 0 -29 -16
-43 -55 -48 l-30 -4 27 -8 c38 -11 57 -2 70 35 9 25 15 30 34 25 22 -6 54 15
54 35 0 13 -6 11 -21 -7z"/>
<path d="M437 3377 c-2 -7 36 -28 84 -49 107 -46 103 -45 109 -35 3 4 -39 27
-92 51 -60 27 -99 39 -101 33z"/>
<path d="M390 3241 c0 -5 12 -11 28 -13 16 -2 31 -12 36 -24 l10 -22 28 21 28
21 30 -22 c34 -25 41 -13 10 18 -24 24 -38 25 -67 5 -18 -13 -22 -12 -38 5
-18 20 -65 28 -65 11z"/>
<path d="M4580 3200 c0 -5 -34 -38 -75 -72 -41 -34 -75 -69 -75 -77 0 -9 8 -6
24 10 13 13 54 47 90 74 63 49 81 75 51 75 -8 0 -15 -4 -15 -10z"/>
<path d="M350 3146 c0 -8 31 -22 78 -35 42 -12 87 -29 98 -36 23 -15 34 -11
34 12 0 7 -8 13 -17 13 -17 0 -73 17 -155 46 -32 12 -38 12 -38 0z"/>
<path d="M415 2918 c-82 -96 -134 -255 -107 -325 15 -39 20 -175 6 -180 -6 -2
-25 20 -44 48 -18 28 -57 76 -87 107 l-54 57 7 -55 c12 -105 59 -215 116 -272
21 -21 47 -38 57 -38 11 0 22 -4 25 -9 3 -5 14 -60 25 -122 11 -63 30 -151 42
-196 13 -45 20 -85 16 -89 -3 -4 -28 11 -53 32 -77 64 -169 123 -173 112 -10
-30 83 -182 148 -241 45 -41 78 -57 116 -57 26 0 52 -42 96 -152 11 -29 26
-60 33 -68 7 -8 30 -46 51 -84 44 -79 49 -78 -85 -22 -47 19 -98 38 -114 42
-27 6 -28 6 -16 -17 24 -45 146 -156 204 -184 44 -22 66 -26 101 -23 43 5 45
4 87 -46 23 -28 89 -99 147 -159 57 -59 102 -110 98 -113 -3 -3 -37 -1 -76 5
-81 13 -201 15 -201 3 0 -14 104 -76 175 -104 80 -31 149 -36 199 -12 l34 17
77 -52 c42 -28 82 -48 88 -44 11 7 10 9 -130 111 -50 37 -125 97 -166 134
l-74 67 0 83 c0 46 -7 110 -16 143 -23 84 -60 177 -72 178 -13 3 -34 -112 -35
-193 l-1 -65 -38 42 c-21 23 -70 90 -110 150 -55 82 -71 114 -68 133 24 128
26 151 17 221 -24 191 -28 201 -53 152 -15 -29 -41 -108 -51 -155 -4 -16 -10
-28 -15 -28 -10 0 -74 164 -101 261 l-20 73 29 45 c37 58 69 171 77 276 l7 80
-27 -24 c-23 -22 -43 -50 -104 -150 l-15 -25 -10 25 c-5 13 -12 99 -14 190
l-6 165 26 40 c15 22 35 73 46 114 18 73 37 240 27 240 -2 0 -21 -19 -41 -42z"/>
<path d="M4520 2928 c0 -57 19 -188 36 -240 8 -26 27 -64 41 -85 26 -38 26
-38 20 -198 -3 -88 -10 -173 -14 -189 -9 -29 -9 -29 -55 45 -26 41 -61 88 -78
104 l-31 30 6 -55 c20 -157 56 -272 106 -341 9 -12 5 -38 -21 -120 -18 -57
-46 -133 -62 -169 l-30 -65 -27 85 c-31 96 -48 133 -60 126 -12 -8 -34 -172
-34 -247 0 -37 6 -89 13 -117 l13 -50 -43 -68 c-51 -81 -141 -204 -162 -222
-13 -10 -16 0 -21 81 -8 107 -24 174 -39 159 -5 -5 -26 -56 -45 -113 -30 -88
-36 -118 -37 -198 l-1 -94 -84 -74 c-83 -73 -151 -126 -246 -191 -33 -23 -44
-37 -37 -44 7 -7 33 6 86 42 l76 53 40 -18 c73 -33 203 0 330 84 l55 36 -70 3
c-39 2 -103 -2 -143 -8 -41 -6 -76 -9 -80 -6 -3 4 37 50 89 104 53 53 119 125
148 159 52 62 53 62 95 57 62 -9 142 32 226 115 37 36 73 77 79 89 12 23 12
24 -21 17 -18 -4 -75 -25 -126 -47 -51 -22 -95 -38 -99 -35 -3 3 19 46 50 94
30 48 58 99 62 113 4 14 23 55 41 93 29 57 38 67 60 67 44 0 92 30 145 89 51
57 125 189 117 211 -2 7 -50 -23 -112 -70 -59 -44 -111 -79 -114 -75 -3 3 5
45 18 93 12 48 31 134 41 192 23 127 24 130 48 130 26 0 81 54 114 110 30 53
67 180 67 230 l-1 35 -36 -40 c-20 -22 -62 -75 -93 -118 l-58 -77 -6 42 c-4
24 -2 66 4 93 20 91 23 144 11 189 -13 54 -66 146 -115 201 l-35 40 -1 -37z"/>
<path d="M3244 656 c-9 -10 -7 -16 7 -24 20 -13 22 -8 11 19 -6 13 -9 14 -18
5z"/>
<path d="M1786 516 c-21 -67 -43 -127 -49 -133 -6 -9 -6 -13 1 -13 6 0 17 -3
25 -6 11 -4 17 5 22 38 6 36 45 154 69 209 5 11 1 18 -11 21 -15 4 -24 -14
-57 -116z"/>
<path d="M3133 613 c-9 -3 -10 -10 -4 -21 15 -29 71 -205 71 -223 0 -12 6 -16
20 -12 12 3 19 11 16 17 -3 6 -22 64 -43 128 -21 65 -40 117 -43 117 -3 0 -11
-3 -17 -6z"/>
<path d="M1702 603 c-17 -7 -42 -57 -42 -86 0 -14 8 -35 18 -46 17 -22 17 -21
14 28 -4 45 -1 54 26 81 29 29 23 39 -16 23z"/>
<path d="M3020 563 c1 -27 1 -27 15 -9 19 25 19 36 0 36 -10 0 -15 -10 -15
-27z"/>
<path d="M1903 556 c4 -6 7 -30 7 -54 0 -35 -6 -49 -29 -73 -25 -24 -26 -29
-11 -29 26 0 70 56 70 90 0 16 -10 39 -22 52 -13 13 -20 19 -15 14z"/>
<path d="M2070 543 c0 -9 6 -24 14 -32 14 -17 56 -174 56 -213 l1 -23 19 23
c16 20 17 25 5 50 -7 15 -23 69 -36 120 -18 75 -26 92 -41 92 -10 0 -18 -7
-18 -17z"/>
<path d="M2904 537 c1 -13 5 -28 9 -34 10 -16 37 -195 31 -204 -6 -10 29 -12
39 -2 4 3 3 11 -2 17 -9 10 -42 184 -44 229 -1 9 -9 17 -18 17 -12 0 -17 -7
-15 -23z"/>
<path d="M2709 523 c-1 -5 -1 -12 1 -18 23 -120 40 -231 36 -242 -6 -14 3 -16
27 -7 14 5 13 40 -3 79 -11 27 -30 131 -30 167 0 18 -5 28 -15 28 -8 0 -16 -3
-16 -7z"/>
<path d="M2291 498 c-5 -13 -6 -28 -4 -35 6 -16 -26 -185 -39 -200 -7 -9 -7
-13 0 -13 6 0 17 -3 26 -6 13 -5 16 1 16 27 0 41 28 196 40 227 8 18 6 22 -11
22 -11 0 -23 -9 -28 -22z"/>
<path d="M2435 325 c0 -71 3 -85 16 -85 13 0 16 14 15 85 -1 68 -4 85 -16 85
-12 0 -15 -16 -15 -85z"/>
<path d="M2565 325 c0 -69 3 -85 15 -85 12 0 15 16 15 85 0 69 -3 85 -15 85
-13 0 -15 -16 -15 -85z"/>
<path d="M2017 315 c-8 -20 -4 -29 11 -24 5 2 6 13 2 23 -6 19 -7 19 -13 1z"/>
</g>
</svg>
