<svg version="1.2" xmlns="http://www.w3.org/2000/svg" viewBox="0 0 48 48" width="48" height="48">
	<title>Asset 361-svg</title>
	<style>
		.s0 { fill: #51777c } 
	</style>
	<g id="Layer_2">
		<g id="_1">
			<path id="Layer" fill-rule="evenodd" class="s0" d="m45 48h-42q-0.6 0-1.1-0.2-0.6-0.3-1-0.7-0.4-0.4-0.7-1-0.2-0.5-0.2-1.1v-42q0-0.6 0.2-1.1 0.3-0.6 0.7-1 0.4-0.4 1-0.7 0.5-0.2 1.1-0.2h42q0.6 0 1.1 0.2 0.6 0.3 1 0.7 0.4 0.4 0.7 1 0.2 0.5 0.2 1.1v42q0 0.6-0.2 1.1-0.3 0.6-0.7 1-0.4 0.4-1 0.7-0.5 0.2-1.1 0.2zm-42-46q-0.2 0-0.4 0.1-0.2 0.1-0.3 0.2-0.1 0.1-0.2 0.3-0.1 0.2-0.1 0.4v42q0 0.2 0.1 0.4 0.1 0.2 0.2 0.3 0.1 0.1 0.3 0.2 0.2 0.1 0.4 0.1h42q0.2 0 0.4-0.1 0.2-0.1 0.3-0.2 0.1-0.1 0.2-0.3 0.1-0.2 0.1-0.4v-42q0-0.2-0.1-0.4-0.1-0.2-0.2-0.3-0.1-0.1-0.3-0.2-0.2-0.1-0.4-0.1z"/>
			<path id="Layer" class="s0" d="m25 24h-2v-7.9q-0.4 0-0.8 0.2-0.4 0.1-0.8 0.2-0.3 0.1-0.7 0.3-0.4 0.2-0.7 0.4-0.9 0.5-2 0.7-1 0.2-2.1 0-1-0.2-1.9-0.7-1-0.6-1.6-1.4c-0.7-0.8-1.1-1.8-1.3-2.8-0.2-1-0.1-2.1 0.3-3.1 0.3-0.9 0.9-1.8 1.7-2.5 0.8-0.6 1.8-1.1 2.8-1.3q0.5-0.1 1.1-0.1 0.5 0 1 0.1 0.6 0.1 1.1 0.3 0.5 0.2 1 0.5 0.3 0.2 0.6 0.3 0.4 0.2 0.8 0.4 0.3 0.1 0.7 0.2 0.4 0.1 0.8 0.2v-7h2v8q0 0.2-0.1 0.4-0.1 0.2-0.2 0.3-0.1 0.1-0.3 0.2-0.2 0.1-0.4 0.1h-0.2q-0.6 0-1.3-0.1-0.6-0.1-1.2-0.3-0.6-0.2-1.2-0.4-0.6-0.3-1.1-0.6c-1.2-0.8-2.8-0.8-4-0.1-1.2 0.8-2 2.1-2 3.5 0 1.4 0.8 2.8 2 3.5 1.2 0.7 2.8 0.7 4 0q0.6-0.4 1.2-0.6 0.6-0.3 1.2-0.5 0.6-0.2 1.3-0.3 0.6-0.1 1.3-0.1 0.2 0 0.4 0.1 0.2 0.1 0.3 0.2 0.1 0.1 0.2 0.3 0.1 0.2 0.1 0.4z"/>
			<path id="Layer" class="s0" d="m25 47h-2v-8q0-0.2 0.1-0.4 0.1-0.2 0.2-0.3 0.1-0.1 0.3-0.2 0.2-0.1 0.4-0.1h0.2q0.6 0 1.3 0.1 0.6 0.1 1.2 0.3 0.6 0.2 1.2 0.4 0.6 0.3 1.1 0.6c1.2 0.8 2.8 0.8 4 0.1 1.2-0.8 2-2.1 2-3.5 0-1.4-0.8-2.8-2-3.5-1.2-0.7-2.8-0.7-4 0q-0.6 0.4-1.2 0.6-0.6 0.3-1.2 0.5-0.6 0.2-1.3 0.3-0.6 0.1-1.3 0.1-0.2 0-0.4-0.1-0.2-0.1-0.3-0.2-0.1-0.1-0.2-0.3-0.1-0.2-0.1-0.4v-9h2v7.9q0.4 0 0.8-0.2 0.4-0.1 0.8-0.2 0.3-0.1 0.7-0.3 0.4-0.2 0.7-0.4 0.3-0.2 0.7-0.3 0.4-0.2 0.7-0.3 0.4-0.1 0.8-0.2 0.4 0 0.8 0c1.5 0 2.9 0.6 4.1 1.6 1.1 1 1.8 2.4 1.9 3.8 0.1 1.5-0.3 3-1.2 4.2-0.9 1.2-2.2 2-3.7 2.3q-0.5 0.1-1.1 0.1-0.5 0-1-0.1-0.6-0.1-1.1-0.3-0.5-0.2-1-0.5-0.3-0.2-0.6-0.3-0.4-0.2-0.8-0.3-0.3-0.2-0.7-0.3-0.4-0.1-0.8-0.2z"/>
			<path id="Layer" class="s0" d="m12 37q-1 0-2-0.4-1-0.3-1.8-1-0.8-0.7-1.4-1.6-0.5-0.9-0.7-1.9-0.1-0.5-0.1-1.1 0-0.5 0.1-1 0.1-0.6 0.3-1.1 0.2-0.5 0.5-1 0.2-0.3 0.3-0.6 0.2-0.4 0.4-0.8 0.1-0.3 0.2-0.7 0.1-0.4 0.2-0.8h-7v-2h8q0.2 0 0.4 0.1 0.2 0.1 0.3 0.2 0.1 0.1 0.2 0.3 0.1 0.2 0.1 0.4v0.2q0 0.6-0.1 1.3-0.1 0.6-0.3 1.2-0.2 0.6-0.4 1.2-0.3 0.6-0.6 1.1c-0.8 1.2-0.8 2.8-0.1 4 0.7 1.3 2 2 3.5 2 1.4 0.1 2.7-0.7 3.5-1.9 0.7-1.3 0.7-2.8 0-4.1q-0.4-0.5-0.7-1.1-0.2-0.6-0.4-1.3-0.2-0.6-0.3-1.3-0.1-0.6-0.1-1.3 0-0.2 0.1-0.4 0.1-0.2 0.2-0.3 0.1-0.1 0.3-0.2 0.2-0.1 0.4-0.1h9v2h-7.9q0 0.4 0.2 0.8 0.1 0.4 0.2 0.8 0.1 0.3 0.3 0.7 0.2 0.4 0.4 0.7c0.5 0.9 0.8 1.9 0.8 3 0 1.1-0.3 2.1-0.8 3-0.5 0.9-1.3 1.7-2.2 2.2-0.9 0.5-1.9 0.8-3 0.8z"/>
			<path id="Layer" class="s0" d="m47 25h-8q-0.2 0-0.4-0.1-0.2-0.1-0.3-0.2-0.1-0.1-0.2-0.3-0.1-0.2-0.1-0.4v-0.2q0-0.6 0.1-1.3 0.1-0.6 0.3-1.2 0.2-0.6 0.4-1.2 0.3-0.6 0.6-1.1c0.8-1.2 0.8-2.8 0.1-4-0.8-1.2-2.1-2-3.5-2-1.4 0-2.8 0.8-3.5 2-0.7 1.2-0.7 2.8 0 4q0.4 0.6 0.6 1.2 0.3 0.6 0.5 1.2 0.2 0.6 0.3 1.3 0.1 0.6 0.1 1.3 0 0.2-0.1 0.4-0.1 0.2-0.2 0.3-0.1 0.1-0.3 0.2-0.2 0.1-0.4 0.1h-9v-2h7.9q0-0.4-0.2-0.8-0.1-0.4-0.2-0.8-0.1-0.3-0.3-0.7-0.2-0.4-0.4-0.7-0.5-0.9-0.7-2-0.2-1 0-2.1 0.2-1 0.7-1.9 0.6-1 1.4-1.6c0.8-0.7 1.8-1.1 2.8-1.3 1-0.2 2.1-0.1 3.1 0.3 0.9 0.3 1.8 0.9 2.5 1.7 0.7 0.8 1.1 1.8 1.3 2.8q0.1 0.5 0.1 1.1 0 0.5-0.1 1.1-0.1 0.5-0.3 1-0.2 0.5-0.4 1-0.3 0.3-0.4 0.7-0.2 0.3-0.3 0.7-0.2 0.4-0.3 0.7-0.1 0.4-0.2 0.8h7z"/>
		</g>
	</g>
</svg>