<svg version="1.2" xmlns="http://www.w3.org/2000/svg" viewBox="0 0 48 48" width="48" height="48">
	<title>Asset 91-svg</title>
	<style>
		.s0 { fill: #51777c } 
	</style>
	<g id="Layer_2">
		<g id="_1">
			<path id="Layer" class="s0" d="m11 46h26v2h-26z"/>
			<path id="Layer" fill-rule="evenodd" class="s0" d="m34 48h-20q-0.2 0-0.4-0.1-0.2-0.1-0.3-0.2-0.1-0.1-0.2-0.3-0.1-0.2-0.1-0.4v-5q0-0.2 0.1-0.4 0.1-0.2 0.2-0.3 0.1-0.1 0.3-0.2 0.2-0.1 0.4-0.1h20q0.2 0 0.4 0.1 0.2 0.1 0.3 0.2 0.1 0.1 0.2 0.3 0.1 0.2 0.1 0.4v5q0 0.2-0.1 0.4-0.1 0.2-0.2 0.3-0.1 0.1-0.3 0.2-0.2 0.1-0.4 0.1zm-19-2h18v-3h-18z"/>
			<path id="Layer" fill-rule="evenodd" class="s0" d="m29 43h-10q-0.1 0-0.2 0-0.1 0-0.2-0.1-0.1 0-0.2-0.1-0.1-0.1-0.1-0.1-0.1-0.1-0.2-0.2 0-0.1-0.1-0.2 0-0.1 0-0.2 0-0.1 0-0.2l1-8q0-0.2 0.1-0.4 0.1-0.1 0.2-0.2 0.2-0.2 0.3-0.2 0.2-0.1 0.4-0.1h8q0.2 0 0.4 0.1 0.1 0 0.3 0.1 0.1 0.2 0.2 0.3 0.1 0.2 0.1 0.4l1 8q0 0.1 0 0.2 0 0.1 0 0.2-0.1 0.1-0.1 0.2-0.1 0.1-0.1 0.2-0.1 0-0.2 0.1-0.1 0.1-0.2 0.1-0.1 0.1-0.2 0.1-0.1 0-0.2 0zm-8.9-2h7.8l-0.8-6h-6.2z"/>
			<path id="Layer" fill-rule="evenodd" class="s0" d="m28 35h-8q-0.1 0-0.1 0-0.1 0-0.2 0 0-0.1-0.1-0.1-0.1 0-0.1 0c-0.4-0.3-10.5-6.5-10.5-33.9q0-0.2 0.1-0.4 0.1-0.2 0.2-0.3 0.1-0.1 0.3-0.2 0.2-0.1 0.4-0.1h28q0.2 0 0.4 0.1 0.2 0.1 0.3 0.2 0.1 0.1 0.2 0.3 0.1 0.2 0.1 0.4c0 27.4-10.1 33.6-10.5 33.9q0 0-0.1 0-0.1 0-0.1 0.1-0.1 0-0.2 0 0 0-0.1 0zm-7.7-2h7.4c1.3-1 9.1-7.9 9.3-31h-26c0.2 23.1 8 30 9.3 31z"/>
			<path id="Layer" class="s0" d="m22.3 30.7c-0.3-0.3-7.3-7.1-7.3-24.7h2c0 16.7 6.6 23.2 6.7 23.3z"/>
			<path id="Layer" class="s0" d="m15 28c-13.8 0-15-21.1-15-21.9q0-0.2 0-0.3 0-0.1 0.1-0.1 0-0.1 0.1-0.2 0-0.1 0.1-0.2 0-0.1 0.1-0.1 0.1-0.1 0.2-0.1 0.1-0.1 0.2-0.1 0.1 0 0.2 0h9v2h-7.9c0.4 4.1 2.6 19 12.9 19z"/>
			<path id="Layer" class="s0" d="m33 28v-2c10.3 0 12.5-14.9 12.9-19h-7.9v-2h9q0.1 0 0.2 0 0.1 0 0.2 0.1 0.1 0 0.2 0.1 0.1 0 0.1 0.1 0.1 0.1 0.1 0.2 0.1 0.1 0.1 0.2 0.1 0 0.1 0.1 0 0.1 0 0.2c0 0.9-1.2 22-15 22z"/>
		</g>
	</g>
</svg>