<svg id="Layer_1" data-name="Layer 1" xmlns="http://www.w3.org/2000/svg" viewBox="0 0 1024 1024"><defs><style>.cls-1,.cls-3{fill:#325f64;}.cls-1,.cls-2{stroke:#325f64;stroke-miterlimit:10;}.cls-2{fill:none;}</style></defs><path class="cls-1" d="M844.94,227c-.38-34.27-34.09-34.33-34.33-34.33H213.69C178.06,193.93,179.37,227,179.37,227s-.05,387.38,0,421.35,34.32,34.32,34.32,34.32,560.63,2.71,596.92,0,34.33-34.32,34.33-34.32S845.32,261.36,844.94,227Zm-20,421.35s-1,13.6-14.33,14.32-596.92,0-596.92,0-14.27-.36-14.32-14.32,0-421.35,0-421.35.69-14,14.32-14.33H810.61s13.95.94,14.33,14.33S824.94,648.33,824.94,648.33Z"/><path class="cls-2" d="M213.69,212.64H810.61s13.95,1,14.33,14.33,0,421.35,0,421.35-1,13.61-14.33,14.32-596.92,0-596.92,0-14.27-.35-14.32-14.32,0-421.35,0-421.35S200.06,212.93,213.69,212.64Z"/><path class="cls-2" d="M213.69,192.64H810.61s33.95,0,34.33,34.33,0,421.35,0,421.35,2,31.61-34.33,34.32-596.92,0-596.92,0-34.27-.35-34.32-34.32,0-421.35,0-421.35S178.06,193.93,213.69,192.64Z"/><rect class="cls-2" x="234.32" y="266.36" width="556" height="294"/><path class="cls-2" d="M824.94,227c-.38-13.39-14.33-14.33-14.33-14.33H213.69c-13.63.28-14.32,14.33-14.32,14.33s-.05,407.38,0,421.35,14.32,14.32,14.32,14.32,583.63.71,596.92,0,14.33-14.32,14.33-14.32S825.32,240.36,824.94,227ZM810.32,580.36h-596v-334h596Z"/><path class="cls-1" d="M214.32,246.36v334h596v-334Zm576,314h-556v-294h556Z"/><rect class="cls-2" x="234.32" y="266.36" width="556" height="294"/><rect class="cls-2" x="234.32" y="266.36" width="556" height="294"/><path class="cls-1" d="M619.65,785.36h-215a10,10,0,0,1-8.19-15.74l3.53-5c19.2-27.42,27.74-57.93,24.71-88.23a10,10,0,0,1,9.95-11h155a10,10,0,0,1,10,11c-3,30.3,5.52,60.81,24.72,88.23l3.53,5a10,10,0,0,1-8.2,15.74Zm-174.38-100c.59,27.49-6.9,54.77-22,80H601c-15.06-25.23-22.55-52.51-22-80"/><path class="cls-1" d="M645.65,831.36h-267a32.5,32.5,0,0,1,0-65h267a32.5,32.5,0,0,1,0,65Zm-267-45a12.5,12.5,0,0,0,0,25h267a12.5,12.5,0,0,0,0-25"/><path class="cls-3" d="M709,468.33c-1.63-12.74-3.17-25.49-4.7-38.26-.2-1.81-.44-3.64-.65-5.47q-1.68-14.1-3.34-28.19c-.12-.86-.21-1.72-.31-2.58s-.23-1.89-.33-2.85c-.7-6-1.31-12.08-2-18.12-.56-5.18-1.15-10.35-1.86-15.51q-.75-5.36-1.68-10.69a62.46,62.46,0,0,0-13.93-29.29l-4.85-5.16a68.83,68.83,0,0,0-47.24-19.09q-115.89-.25-231.73,0c-30.38.08-58.27,21.22-65,49.61-2.66,11.21-3.29,22.87-4.69,34.35-3,25.07-6,50.18-9,75.27-.93,7.44-2.07,14.87-3.09,22.33v15.85a26.23,26.23,0,0,1,.8,2.79c3.1,16.34,10.87,29.55,26.55,37.17,26.33,12.8,58.22-.2,69.07-28.35,4.94-12.77,8.91-25.92,13.49-38.84.47-1.33,2-2.32,3.53-4,5.16,14.39,14.18,22.61,28.36,23.46,16.49,1,27-7.5,32.59-22.34h46.72c5.26,14.06,15,22.23,30.49,22.48,13.79.22,23.83-7.44,30.63-23.64,1.42,1.6,2.85,2.58,3.3,3.88,3.84,10.93,7.15,22,11.32,32.82,2.55,6.62,5.46,13.41,9.69,19.1,22.56,30.41,68.78,26,84-7.86C710.73,494.67,710.7,481.63,709,468.33Zm-250.33-.62a15.22,15.22,0,0,1-15.36-15.14,15.36,15.36,0,0,1,30.71,0A15.27,15.27,0,0,1,458.67,467.71Zm107.25,0a15.28,15.28,0,0,1-15.3-15.22c0-8.45,6.75-15,15.45-14.95a14.93,14.93,0,0,1,15.26,15.09A15.2,15.2,0,0,1,565.92,467.71Zm106.31,50.57c-17.74,6.07-37.1-3.29-44-21.83-5.34-14.24-9.94-28.78-14.84-43.17-2.52-7.38-3.94-8.38-12-8.38h-5c-5.25-14.38-15.27-22.86-30.81-22.67-15,.19-24.74,8.52-29.8,22.43H489c-5.28-14.31-15.46-22.87-31.39-22.38-14.7.44-24.15,8.68-29.26,22.62-2.05,0-4.32.07-6.59,0-5.21-.22-8.31,2-9.93,7-4.48,13.76-9.26,27.42-13.91,41.13-4.46,13.13-12.71,22.78-26.85,26.14-18.51,4.41-35-6.43-39.56-25.17-2.32-9.57-.75-19,.38-28.48,2.94-25,5.88-49.94,9-74.88,1.87-15.2,2.88-30.64,6.32-45.52,4.75-20.61,26.88-36.49,48.4-36.65,18.3-.1,36.58,0,54.85,0H454c0,12.53-.07,24.47,0,36.4.13,12.11,6.65,20.72,17.74,23.51a21.87,21.87,0,0,0,5.72.62,7.52,7.52,0,0,0,7.75-6.91,7.88,7.88,0,0,0-6.54-8.12c-7.64-1.4-8.9-2.86-8.9-10.49q0-17,.08-34c0-.22.2-.42.41-.81h84.6c0,13,.15,25.8-.11,38.58-.09,4-3.22,6.08-7.23,6.61-5.31.73-8.43,3.91-8,8.25s3.89,7.06,9.33,6.89c10.6-.33,20.49-8.85,21.37-19.27.72-8.14.42-16.35.51-24.53.05-5.4,0-10.8,0-16.75h4.37c17.38,0,34.75.29,52.12,0,17.76-.35,34.68,9.87,44.35,24.09a32.37,32.37,0,0,1,3.8,6.58,44.6,44.6,0,0,1,4.29,14.88c4.12,41.78,9.77,83.42,14.71,125.1C696.42,496.62,687,513.21,672.23,518.28Z"/><path class="cls-3" d="M424.44,361.2c13.48,1.67,22.4,10.19,22.92,21.69.58,12.79-7.1,21.07-22.64,24.4-1.61,14.07-11.56,22.57-24.39,22.55-12.12,0-19.5-7.36-23.37-22.34-17.32-2.09-23.47-15-22.87-24.69.73-11.61,9.29-19.7,22.75-21.65,4.72-16.57,12.19-23.05,25.88-22.43C413.91,339.25,421.84,347.38,424.44,361.2ZM400.8,414.39a7.08,7.08,0,0,0,7.37-6.3c.29-2.74.09-5.53.27-8.28.35-5.22,3.31-8,8.67-8.11,2.44-.07,4.9.1,7.33-.08,4.37-.32,6.9-2.86,7.15-7,.24-3.95-1.82-6.87-6-7.58a60.64,60.64,0,0,0-8.44-.43c-5.71-.16-8.47-2.73-8.76-8.32-.12-2.38,0-4.78-.14-7.16a7.54,7.54,0,0,0-15.08.13c-.13,2.38,0,4.78-.09,7.16-.29,5.26-3.21,8-8.55,8.19a65.89,65.89,0,0,0-8.45.36c-4.3.71-6.46,3.54-6.16,7.77s2.91,6.58,7.22,6.89c2.31.16,4.63,0,6.95.06,5.71.12,8.76,3,9,8.61.1,2.38-.06,4.78.1,7.16A7.19,7.19,0,0,0,400.8,414.39Z"/><path class="cls-3" d="M647.46,360.85c-2.48-13.27-10.11-21.78-21-21.88a32.2,32.2,0,0,0-8.19,1,33.26,33.26,0,0,0-7.12,2.62c-7.31,3.72-10.09,10.94-10.82,18.62a30.14,30.14,0,0,0-11.81,3.69,21.49,21.49,0,0,0-11.22,17.69q-.52,8.76,4.16,14.67,4,5,11.79,8a55.73,55.73,0,0,0,7,2.07A36.3,36.3,0,0,0,604,418.25c4.07,7.29,10.63,11.3,19.25,11.65a20.84,20.84,0,0,0,11.63-2.62c5.81-3.37,10-9.94,12.85-19.87a48.3,48.3,0,0,0,11.76-4.53c4.69-2.67,7.82-6,9.52-10.13a22,22,0,0,0,1.57-8.53C670.6,372.42,663.61,365.35,647.46,360.85Zm-16,46.3a7.26,7.26,0,0,1-5.94,7.08,9.59,9.59,0,0,1-1.36.15,7.19,7.19,0,0,1-7.8-7.09c-.2-2.64,0-5.3-.2-7.91-.39-4.8-3.35-7.49-8.31-7.69-2.43-.08-4.89.05-7.32-.05a8.09,8.09,0,0,1-6.08-2.88,6.85,6.85,0,0,1-1.45-4.19c0-3.27,1.29-5.72,4-6.92a9.11,9.11,0,0,1,2.48-.72,79.62,79.62,0,0,1,8.48-.34c5-.17,7.86-2.69,8.25-7.59.21-2.76,0-5.54.26-8.3.38-4.34,3.25-6.45,7.41-6.77a7.27,7.27,0,0,1,7.57,7c.19,2.52,0,5.05.13,7.54.31,5.25,3.24,8,8.6,8.15a72.09,72.09,0,0,1,8.46.37,6.77,6.77,0,0,1,6.16,6.65,7.49,7.49,0,0,1-7.34,8c-13.34.89-14.77,1-15.65,11.29C631.66,404.2,631.57,405.59,631.46,407.15Z"/><path class="cls-3" d="M512.3,384.1c7.07,0,14.14,0,21.21,0,5.31,0,8.76,2.95,8.91,7.39.16,4.68-3.1,7.93-8.68,8q-21.4.19-42.8,0c-5.6-.05-8.86-3.27-8.72-7.95s3.66-7.41,9.25-7.44C498.41,384.07,505.36,384.1,512.3,384.1Z"/><path class="cls-3" d="M512.28,414.44c3.09,0,6.18-.13,9.25,0,4.93.24,8.35,3.48,8.37,7.68s-3.43,7.61-8.3,7.75q-9.24.25-18.5,0c-4.9-.13-8.33-3.46-8.36-7.68s3.38-7.49,8.3-7.75C506.11,414.31,509.2,414.44,512.28,414.44Z"/><path class="cls-3" d="M520,361.3a7.72,7.72,0,0,1-15.42.47A7.71,7.71,0,0,1,520,361.3Z"/><path class="cls-3" d="M513.19,199.39h14.38C522.77,199.37,518,199.35,513.19,199.39Z"/><path class="cls-3" d="M536,260.66h-1.45q-.1,1.21-.21,2.34H536Z"/><path class="cls-3" d="M490.86,248.28c.16,4.13-.09,8.28.08,12.41Z"/><path class="cls-3" d="M536,260.66h-1.45q-.1,1.21-.21,2.34H536Z"/></svg>