<svg id="Layer_1" data-name="Layer 1" xmlns="http://www.w3.org/2000/svg" viewBox="0 0 1024 1024"><defs><style>.cls-1,.cls-3{fill:#325f64;}.cls-1,.cls-2{stroke:#325f64;stroke-miterlimit:10;}.cls-2{fill:none;}</style></defs><path class="cls-1" d="M844.94,227c-.38-34.27-34.09-34.33-34.33-34.33H213.69C178.06,193.93,179.37,227,179.37,227s-.05,387.38,0,421.35,34.32,34.32,34.32,34.32,560.63,2.71,596.92,0,34.33-34.32,34.33-34.32S845.32,261.36,844.94,227Zm-20,421.35s-1,13.6-14.33,14.32-596.92,0-596.92,0-14.27-.36-14.32-14.32,0-421.35,0-421.35.69-14,14.32-14.33H810.61s13.95.94,14.33,14.33S824.94,648.33,824.94,648.33Z"/><path class="cls-2" d="M213.69,212.64H810.61s13.95,1,14.33,14.33,0,421.35,0,421.35-1,13.61-14.33,14.32-596.92,0-596.92,0-14.27-.35-14.32-14.32,0-421.35,0-421.35S200.06,212.93,213.69,212.64Z"/><path class="cls-2" d="M213.69,192.64H810.61s33.95,0,34.33,34.33,0,421.35,0,421.35,2,31.61-34.33,34.32-596.92,0-596.92,0-34.27-.35-34.32-34.32,0-421.35,0-421.35S178.06,193.93,213.69,192.64Z"/><rect class="cls-2" x="234.32" y="266.36" width="556" height="294"/><path class="cls-2" d="M824.94,227c-.38-13.39-14.33-14.33-14.33-14.33H213.69c-13.63.28-14.32,14.33-14.32,14.33s-.05,407.38,0,421.35,14.32,14.32,14.32,14.32,583.63.71,596.92,0,14.33-14.32,14.33-14.32S825.32,240.36,824.94,227ZM810.32,580.36h-596v-334h596Z"/><path class="cls-1" d="M214.32,246.36v334h596v-334Zm576,314h-556v-294h556Z"/><rect class="cls-2" x="234.32" y="266.36" width="556" height="294"/><rect class="cls-2" x="234.32" y="266.36" width="556" height="294"/><path class="cls-1" d="M619.65,785.36h-215a10,10,0,0,1-8.19-15.74l3.53-5c19.2-27.42,27.74-57.93,24.71-88.23a10,10,0,0,1,9.95-11h155a10,10,0,0,1,10,11c-3,30.3,5.52,60.81,24.72,88.23l3.53,5a10,10,0,0,1-8.2,15.74Zm-174.38-100c.59,27.49-6.9,54.77-22,80H601c-15.06-25.23-22.55-52.51-22-80"/><path class="cls-1" d="M645.65,831.36h-267a32.5,32.5,0,0,1,0-65h267a32.5,32.5,0,0,1,0,65Zm-267-45a12.5,12.5,0,0,0,0,25h267a12.5,12.5,0,0,0,0-25"/><path class="cls-3" d="M600.33,419.2c0,9.1-.1,18.2,0,27.29a9.51,9.51,0,0,1-5.31,9.21q-36,19.95-71.91,39.95a10.75,10.75,0,0,1-10.29.35q-35.65-15.94-71.37-31.75c-4.24-1.88-6.28-4.78-6.25-9.55q.19-27.56,0-55.1a10.41,10.41,0,0,1,4.56-9.18c10.21-7.54,20.32-15.21,30.52-22.77a25.88,25.88,0,0,1,4.89-2.77Q510,349.39,544.71,334c6.91-3.07,9.6-2.5,14.32,3.16,12.32,14.75,24.52,29.61,37,44.24A17.16,17.16,0,0,1,600.42,394C600.11,402.37,600.33,410.79,600.33,419.2ZM578.4,387.33a16.47,16.47,0,0,0-1-1.57c-9.21-11.08-18.39-22.17-27.72-33.15a3.68,3.68,0,0,0-3.38-.64c-18,7.87-36,15.89-54,23.83-2.11.93-2.28,1.9-.92,3.78,9.13,12.64,18.13,25.39,27.33,38,.65.89,3,1.56,3.94,1.08,18-9.84,36-19.85,54-29.86A13.15,13.15,0,0,0,578.4,387.33Zm-68.94,69c0-5.48.18-11-.12-16.45-.07-1.47-1.23-3.63-2.48-4.19-17.12-7.81-34.38-15.34-51.54-23.07-3-1.38-3.37-.27-3.34,2.42.09,10.8-.05,21.6.14,32.4a5,5,0,0,0,2.28,3.8c17.28,7.85,34.67,15.47,52,23.26,2.76,1.24,3.15.27,3.1-2.22C509.39,467,509.46,461.65,509.46,456.33Zm74.17-32.26c0-5.14-.19-10.29.06-15.42.18-3.81-.89-3.89-3.87-2.21q-25.07,14.08-50.29,27.87c-2.7,1.47-3.46,3.21-3.41,6.08.14,9.77,0,19.54.06,29.31,0,4.74.07,4.78,4.22,2.48,14.52-8.06,28.74-16.71,43.64-24,7.85-3.83,11-8.58,9.64-16.94C583.3,428.93,583.63,426.47,583.63,424.07Zm-92.09-14.51a7.78,7.78,0,0,0-.52-1.26c-5.06-7.09-10.08-14.2-15.27-21.19-.36-.49-2.18-.53-2.84-.07-3.52,2.4-6.89,5-10.31,7.59-1.52,1.13-1.62,1.95.3,2.8,8.89,3.92,17.75,7.92,26.63,11.86A7.94,7.94,0,0,0,491.54,409.56Z"/><path class="cls-3" d="M413.52,391.39c.92,1.18,2,2.8,3.3,4.24,2.51,2.8,7.36,5.69,7.14,8.18-.28,3.1-4.66,5.88-7.35,8.71-2.49,2.61-5,5.17-7.66,7.63-4.29,4-8.62,4.13-12.75.2-4.86-4.6-9.44-9.49-14.27-14.12-1.83-1.76-1.64-3,.13-4.58,2.28-2.07,4.37-4.35,6.58-6.51,1.51-1.48,2.87-3.91,5.27-1.07.76-.9,2-1.7,2.19-2.71a118.56,118.56,0,0,1,20.37-47.82C437.88,314,466.58,296.27,503,292c37.75-4.46,70.7,6.53,99,31.83,2.95,2.63,3.49,4.45.15,7.08-2.94,2.32-5.27,6.67-8.34,7.15-2.39.37-5.51-3.8-8.26-6-60.78-49-151.95-19.4-171,55.6C414.25,388.6,414,389.59,413.52,391.39Z"/><path class="cls-3" d="M616.93,453.16c-.71-1.32-1.53-3.09-2.57-4.72-2-3.16-6.34-6.8-5.72-9.22.77-3,5.53-5.05,8.65-7.41,2.87-2.18,5.79-4.3,8.79-6.3,4.88-3.25,9.17-2.69,12.62,1.86,4,5.32,7.78,10.88,11.8,16.23,1.52,2,1.14,3.21-.86,4.5-2.59,1.67-5,3.59-7.55,5.37-1.73,1.21-3.46,3.39-5.37.2-.89.77-2.25,1.36-2.6,2.33a118.7,118.7,0,0,1-27.8,43.91c-25.9,25.72-57.08,38.57-93.7,36.95-38-1.68-68.72-17.83-92.58-47.36-2.48-3.07-2.72-5,1-7,3.27-1.81,6.28-5.73,9.38-5.71,2.42,0,4.83,4.64,7.19,7.27,52.08,58.19,146.84,43.63,177.75-27.31C615.76,455.79,616.18,454.86,616.93,453.16Z"/></svg>